%TF.GenerationSoftware,KiCad,Pcbnew,7.0.9-7.0.9~ubuntu22.04.1*%
%TF.CreationDate,2023-12-15T15:57:01-03:00*%
%TF.ProjectId,Controle_Motor_DC,436f6e74-726f-46c6-955f-4d6f746f725f,V01*%
%TF.SameCoordinates,Original*%
%TF.FileFunction,Copper,L1,Top*%
%TF.FilePolarity,Positive*%
%FSLAX46Y46*%
G04 Gerber Fmt 4.6, Leading zero omitted, Abs format (unit mm)*
G04 Created by KiCad (PCBNEW 7.0.9-7.0.9~ubuntu22.04.1) date 2023-12-15 15:57:01*
%MOMM*%
%LPD*%
G01*
G04 APERTURE LIST*
G04 Aperture macros list*
%AMRoundRect*
0 Rectangle with rounded corners*
0 $1 Rounding radius*
0 $2 $3 $4 $5 $6 $7 $8 $9 X,Y pos of 4 corners*
0 Add a 4 corners polygon primitive as box body*
4,1,4,$2,$3,$4,$5,$6,$7,$8,$9,$2,$3,0*
0 Add four circle primitives for the rounded corners*
1,1,$1+$1,$2,$3*
1,1,$1+$1,$4,$5*
1,1,$1+$1,$6,$7*
1,1,$1+$1,$8,$9*
0 Add four rect primitives between the rounded corners*
20,1,$1+$1,$2,$3,$4,$5,0*
20,1,$1+$1,$4,$5,$6,$7,0*
20,1,$1+$1,$6,$7,$8,$9,0*
20,1,$1+$1,$8,$9,$2,$3,0*%
G04 Aperture macros list end*
%TA.AperFunction,ComponentPad*%
%ADD10R,1.800000X2.600000*%
%TD*%
%TA.AperFunction,ComponentPad*%
%ADD11O,1.800000X2.600000*%
%TD*%
%TA.AperFunction,ComponentPad*%
%ADD12R,2.000000X2.000000*%
%TD*%
%TA.AperFunction,ComponentPad*%
%ADD13C,1.600000*%
%TD*%
%TA.AperFunction,ComponentPad*%
%ADD14C,1.620000*%
%TD*%
%TA.AperFunction,ComponentPad*%
%ADD15R,1.600000X1.600000*%
%TD*%
%TA.AperFunction,ComponentPad*%
%ADD16O,3.000000X2.500000*%
%TD*%
%TA.AperFunction,ComponentPad*%
%ADD17C,1.500000*%
%TD*%
%TA.AperFunction,ComponentPad*%
%ADD18C,1.000000*%
%TD*%
%TA.AperFunction,ComponentPad*%
%ADD19O,1.600000X1.200000*%
%TD*%
%TA.AperFunction,ComponentPad*%
%ADD20O,1.200000X1.200000*%
%TD*%
%TA.AperFunction,ComponentPad*%
%ADD21O,1.600000X1.600000*%
%TD*%
%TA.AperFunction,ComponentPad*%
%ADD22R,2.000000X4.000000*%
%TD*%
%TA.AperFunction,ComponentPad*%
%ADD23O,2.000000X3.300000*%
%TD*%
%TA.AperFunction,ComponentPad*%
%ADD24O,3.500000X2.000000*%
%TD*%
%TA.AperFunction,ComponentPad*%
%ADD25RoundRect,0.250001X-1.549999X0.799999X-1.549999X-0.799999X1.549999X-0.799999X1.549999X0.799999X0*%
%TD*%
%TA.AperFunction,ComponentPad*%
%ADD26O,3.600000X2.100000*%
%TD*%
%TA.AperFunction,Conductor*%
%ADD27C,0.250000*%
%TD*%
%TA.AperFunction,Conductor*%
%ADD28C,0.400000*%
%TD*%
G04 APERTURE END LIST*
D10*
%TO.P,U2,1,VSS*%
%TO.N,GND*%
X135840000Y-75737500D03*
D11*
%TO.P,U2,2,VDD*%
%TO.N,VCC*%
X133300000Y-75737500D03*
%TO.P,U2,3,VO*%
%TO.N,Net-(U2-VO)*%
X130760000Y-75737500D03*
%TO.P,U2,4,RS*%
%TO.N,Net-(U1-P3.1)*%
X128220000Y-75737500D03*
%TO.P,U2,5,R/W*%
%TO.N,Net-(U1-P3.2)*%
X125680000Y-75737500D03*
%TO.P,U2,6,E*%
%TO.N,Net-(U1-P3.0)*%
X123140000Y-75737500D03*
%TO.P,U2,7,DB0*%
%TO.N,Net-(U1-P0.0)*%
X120600000Y-75737500D03*
%TO.P,U2,8,DB1*%
%TO.N,Net-(U1-P0.1)*%
X118060000Y-75737500D03*
%TO.P,U2,9,DB2*%
%TO.N,Net-(U1-P0.2)*%
X115520000Y-75737500D03*
%TO.P,U2,10,DB3*%
%TO.N,Net-(U1-P0.3)*%
X112980000Y-75737500D03*
%TO.P,U2,11,DB4*%
%TO.N,Net-(U1-P0.4)*%
X110440000Y-75737500D03*
%TO.P,U2,12,DB5*%
%TO.N,Net-(U1-P0.5)*%
X107900000Y-75737500D03*
%TO.P,U2,13,DB6*%
%TO.N,Net-(U1-P0.6)*%
X105354920Y-75734960D03*
%TO.P,U2,14,DB7*%
%TO.N,Net-(U1-P0.7)*%
X102820000Y-75737500D03*
%TO.P,U2,15,A/VEE*%
%TO.N,unconnected-(U2-A{slash}VEE-Pad15)*%
X140920000Y-75737500D03*
%TO.P,U2,16,K*%
%TO.N,unconnected-(U2-K-Pad16)*%
X138374920Y-75734960D03*
D12*
%TO.P,U2,A1*%
%TO.N,N/C*%
X175120000Y-51597500D03*
X175120000Y-49057500D03*
X172580000Y-51597500D03*
%TO.P,U2,K1*%
X175120000Y-59217500D03*
X175120000Y-56677500D03*
X172580000Y-56677500D03*
%TD*%
D13*
%TO.P,C1,1*%
%TO.N,Net-(U1-XTAL2)*%
X136024000Y-132080000D03*
%TO.P,C1,2*%
%TO.N,GND*%
X138524000Y-132080000D03*
%TD*%
D14*
%TO.P,RV1,1,1*%
%TO.N,VCC*%
X152400000Y-81360000D03*
%TO.P,RV1,2,2*%
%TO.N,Net-(U2-VO)*%
X154900000Y-83860000D03*
%TO.P,RV1,3,3*%
%TO.N,GND*%
X152400000Y-86360000D03*
%TD*%
D15*
%TO.P,C3,1*%
%TO.N,VCC*%
X96520000Y-124460000D03*
D13*
%TO.P,C3,2*%
%TO.N,Net-(U1-RST)*%
X99020000Y-124460000D03*
%TD*%
D16*
%TO.P,SW1,1,1*%
%TO.N,Net-(U1-RST)*%
X106680000Y-124540000D03*
X119180000Y-124540000D03*
%TO.P,SW1,2,2*%
%TO.N,VCC*%
X106680000Y-129540000D03*
X119180000Y-129540000D03*
%TD*%
D17*
%TO.P,K1,13*%
%TO.N,VCC*%
X170180000Y-118880000D03*
%TO.P,K1,14*%
%TO.N,Net-(M1-+)*%
X170180000Y-103640000D03*
%TO.P,K1,A1*%
%TO.N,Net-(Q1-C)*%
X170180000Y-108720000D03*
%TO.P,K1,A2*%
%TO.N,VCC*%
X170180000Y-113800000D03*
%TD*%
D16*
%TO.P,SW2,1,1*%
%TO.N,VCC*%
X160020000Y-83900000D03*
X172520000Y-83900000D03*
%TO.P,SW2,2,2*%
%TO.N,Net-(U1-P2.5)*%
X160020000Y-88900000D03*
X172520000Y-88900000D03*
%TD*%
D18*
%TO.P,U1,1,P1.0*%
%TO.N,unconnected-(U1-P1.0-Pad1)*%
X97060000Y-116560000D03*
%TO.P,U1,2,P1.1*%
%TO.N,unconnected-(U1-P1.1-Pad2)*%
X99850000Y-116560000D03*
%TO.P,U1,3,P1.2*%
%TO.N,unconnected-(U1-P1.2-Pad3)*%
X102640000Y-116560000D03*
%TO.P,U1,4,P1.3*%
%TO.N,unconnected-(U1-P1.3-Pad4)*%
X105430000Y-116560000D03*
%TO.P,U1,5,P1.4*%
%TO.N,unconnected-(U1-P1.4-Pad5)*%
X108220000Y-116560000D03*
%TO.P,U1,6,P1.5*%
%TO.N,unconnected-(U1-P1.5-Pad6)*%
X111010000Y-116560000D03*
%TO.P,U1,7,P1.6*%
%TO.N,unconnected-(U1-P1.6-Pad7)*%
X113800000Y-116560000D03*
%TO.P,U1,8,P1.7*%
%TO.N,unconnected-(U1-P1.7-Pad8)*%
X116590000Y-116560000D03*
%TO.P,U1,9,RST*%
%TO.N,Net-(U1-RST)*%
X119380000Y-116560000D03*
%TO.P,U1,10,P3.0*%
%TO.N,Net-(U1-P3.0)*%
X122170000Y-116560000D03*
%TO.P,U1,11,P3.1*%
%TO.N,Net-(U1-P3.1)*%
X124960000Y-116560000D03*
%TO.P,U1,12,P3.2*%
%TO.N,Net-(U1-P3.2)*%
X127750000Y-116560000D03*
%TO.P,U1,13,P3.3*%
%TO.N,unconnected-(U1-P3.3-Pad13)*%
X130540000Y-116560000D03*
%TO.P,U1,14,P3.4*%
%TO.N,unconnected-(U1-P3.4-Pad14)*%
X133330000Y-116560000D03*
%TO.P,U1,15,P3.5*%
%TO.N,unconnected-(U1-P3.5-Pad15)*%
X136120000Y-116560000D03*
%TO.P,U1,16,P3.6*%
%TO.N,unconnected-(U1-P3.6-Pad16)*%
X138910000Y-116560000D03*
%TO.P,U1,17,P3.7*%
%TO.N,unconnected-(U1-P3.7-Pad17)*%
X141700000Y-116560000D03*
%TO.P,U1,18,XTAL2*%
%TO.N,Net-(U1-XTAL2)*%
X144490000Y-116560000D03*
%TO.P,U1,19,XTAL1*%
%TO.N,Net-(U1-XTAL1)*%
X147280000Y-116560000D03*
%TO.P,U1,20,GND*%
%TO.N,GND*%
X150070000Y-116560000D03*
%TO.P,U1,21,P2.0*%
%TO.N,unconnected-(U1-P2.0-Pad21)*%
X150070000Y-99060000D03*
%TO.P,U1,22,P2.1*%
%TO.N,unconnected-(U1-P2.1-Pad22)*%
X147280000Y-99060000D03*
%TO.P,U1,23,P2.2*%
%TO.N,unconnected-(U1-P2.2-Pad23)*%
X144490000Y-99060000D03*
%TO.P,U1,24,P2.3*%
%TO.N,unconnected-(U1-P2.3-Pad24)*%
X141700000Y-99060000D03*
%TO.P,U1,25,P2.4*%
%TO.N,Net-(Q1-B)*%
X138910000Y-99060000D03*
%TO.P,U1,26,P2.5*%
%TO.N,Net-(U1-P2.5)*%
X136120000Y-99060000D03*
%TO.P,U1,27,P2.6*%
%TO.N,unconnected-(U1-P2.6-Pad27)*%
X133330000Y-99060000D03*
%TO.P,U1,28,P2.7*%
%TO.N,unconnected-(U1-P2.7-Pad28)*%
X130540000Y-99060000D03*
%TO.P,U1,29,PSEN*%
%TO.N,unconnected-(U1-PSEN-Pad29)*%
X127750000Y-99060000D03*
%TO.P,U1,30,ALE/PROG*%
%TO.N,unconnected-(U1-ALE{slash}PROG-Pad30)*%
X124960000Y-99060000D03*
%TO.P,U1,31,EA/VPP*%
%TO.N,unconnected-(U1-EA{slash}VPP-Pad31)*%
X122170000Y-99060000D03*
%TO.P,U1,32,P0.7*%
%TO.N,Net-(U1-P0.7)*%
X119380000Y-99060000D03*
%TO.P,U1,33,P0.6*%
%TO.N,Net-(U1-P0.6)*%
X116590000Y-99060000D03*
%TO.P,U1,34,P0.5*%
%TO.N,Net-(U1-P0.5)*%
X113800000Y-99060000D03*
%TO.P,U1,35,P0.4*%
%TO.N,Net-(U1-P0.4)*%
X111010000Y-99060000D03*
%TO.P,U1,36,P0.3*%
%TO.N,Net-(U1-P0.3)*%
X108220000Y-99060000D03*
%TO.P,U1,37,P0.2*%
%TO.N,Net-(U1-P0.2)*%
X105430000Y-99060000D03*
%TO.P,U1,38,P0.1*%
%TO.N,Net-(U1-P0.1)*%
X102640000Y-99060000D03*
%TO.P,U1,39,P0.0*%
%TO.N,Net-(U1-P0.0)*%
X99850000Y-99060000D03*
%TO.P,U1,40,VCC*%
%TO.N,VCC*%
X97060000Y-99060000D03*
%TD*%
D17*
%TO.P,Y1,1,1*%
%TO.N,Net-(U1-XTAL1)*%
X143724000Y-124460000D03*
%TO.P,Y1,2,2*%
%TO.N,Net-(U1-XTAL2)*%
X138724000Y-124460000D03*
%TD*%
D19*
%TO.P,Q1,1,E*%
%TO.N,GND*%
X157480000Y-109220000D03*
D20*
%TO.P,Q1,2,B*%
%TO.N,Net-(Q1-B)*%
X160020000Y-111760000D03*
%TO.P,Q1,3,C*%
%TO.N,Net-(Q1-C)*%
X162560000Y-109220000D03*
%TD*%
D13*
%TO.P,R1,1*%
%TO.N,Net-(U1-RST)*%
X128524000Y-124714000D03*
D21*
%TO.P,R1,2*%
%TO.N,GND*%
X128524000Y-132334000D03*
%TD*%
D22*
%TO.P,BT1,1,+*%
%TO.N,VCC*%
X74280000Y-71700000D03*
D23*
%TO.P,BT1,2,-*%
%TO.N,GND*%
X80280000Y-71700000D03*
D24*
%TO.P,BT1,MP*%
%TO.N,N/C*%
X81280000Y-76200000D03*
X81280000Y-67200000D03*
%TD*%
D13*
%TO.P,C2,1*%
%TO.N,Net-(U1-XTAL1)*%
X143684000Y-132080000D03*
%TO.P,C2,2*%
%TO.N,GND*%
X146184000Y-132080000D03*
%TD*%
D25*
%TO.P,M1,1,+*%
%TO.N,Net-(M1-+)*%
X187237500Y-105410000D03*
D26*
%TO.P,M1,2,-*%
%TO.N,GND*%
X187237500Y-113030000D03*
%TD*%
D27*
%TO.N,Net-(U1-P3.0)*%
X123393200Y-82245200D02*
X123140000Y-81992000D01*
X123140000Y-81992000D02*
X123140000Y-75737500D01*
%TO.N,Net-(U1-P3.1)*%
X126492000Y-96723200D02*
X126492000Y-81026000D01*
X128220000Y-79298000D02*
X128220000Y-75737500D01*
X126136400Y-103479600D02*
X126136400Y-97078800D01*
X124960000Y-116560000D02*
X124960000Y-104656000D01*
X126136400Y-97078800D02*
X126492000Y-96723200D01*
X124960000Y-104656000D02*
X126136400Y-103479600D01*
X126492000Y-81026000D02*
X128220000Y-79298000D01*
%TO.N,Net-(U1-P3.0)*%
X123393200Y-101854000D02*
X123393200Y-82245200D01*
X122170000Y-116560000D02*
X122170000Y-103077200D01*
X122170000Y-103077200D02*
X123393200Y-101854000D01*
%TO.N,Net-(U1-P0.4)*%
X111010000Y-79971200D02*
X110337600Y-79298800D01*
X111010000Y-99060000D02*
X111010000Y-79971200D01*
X110440000Y-79196400D02*
X110440000Y-75737500D01*
X110337600Y-79298800D02*
X110440000Y-79196400D01*
%TO.N,Net-(U1-P0.3)*%
X108220000Y-99060000D02*
X108220000Y-84394800D01*
X101295200Y-66090800D02*
X111048800Y-66090800D01*
X108220000Y-84394800D02*
X100482400Y-76657200D01*
X111048800Y-66090800D02*
X112980000Y-68022000D01*
X100482400Y-76657200D02*
X100482400Y-66903600D01*
X100482400Y-66903600D02*
X101295200Y-66090800D01*
X112980000Y-68022000D02*
X112980000Y-75737500D01*
%TO.N,Net-(U1-P0.2)*%
X105430000Y-99060000D02*
X105430000Y-83179600D01*
X105430000Y-83179600D02*
X98907600Y-76657200D01*
X98907600Y-76657200D02*
X98907600Y-65887600D01*
X98907600Y-65887600D02*
X100584000Y-64211200D01*
X100584000Y-64211200D02*
X112826800Y-64211200D01*
X112826800Y-64211200D02*
X115520000Y-66904400D01*
X115520000Y-66904400D02*
X115520000Y-75737500D01*
%TO.N,Net-(U1-P0.1)*%
X118060000Y-75737500D02*
X118060000Y-64821600D01*
X118060000Y-64821600D02*
X115874800Y-62636400D01*
X115874800Y-62636400D02*
X96875600Y-62636400D01*
X94488000Y-65024000D02*
X94488000Y-75234800D01*
X96875600Y-62636400D02*
X94488000Y-65024000D01*
X94488000Y-75234800D02*
X102640000Y-83386800D01*
X102640000Y-83386800D02*
X102640000Y-99060000D01*
%TO.N,Net-(U1-P0.0)*%
X99850000Y-99060000D02*
X99850000Y-83136800D01*
X99850000Y-83136800D02*
X93522800Y-76809600D01*
X93522800Y-76809600D02*
X93522800Y-63347600D01*
X93522800Y-63347600D02*
X96012000Y-60858400D01*
X118364000Y-60858400D02*
X120600000Y-63094400D01*
X96012000Y-60858400D02*
X118364000Y-60858400D01*
X120600000Y-63094400D02*
X120600000Y-75737500D01*
%TO.N,Net-(U1-P2.5)*%
X160020000Y-88900000D02*
X158191200Y-88900000D01*
X158191200Y-88900000D02*
X152704800Y-94386400D01*
X152704800Y-94386400D02*
X138277600Y-94386400D01*
X138277600Y-94386400D02*
X136120000Y-96544000D01*
X136120000Y-96544000D02*
X136120000Y-99060000D01*
%TO.N,Net-(U2-VO)*%
X154900000Y-83860000D02*
X154900000Y-85465133D01*
X154900000Y-85465133D02*
X154889200Y-85475933D01*
X154889200Y-90017600D02*
X153670000Y-91236800D01*
X154889200Y-85475933D02*
X154889200Y-90017600D01*
X153670000Y-91236800D02*
X135077200Y-91236800D01*
X135077200Y-91236800D02*
X130759200Y-86918800D01*
X130759200Y-86918800D02*
X130708400Y-86918800D01*
X130708400Y-86918800D02*
X130760000Y-86867200D01*
X130760000Y-86867200D02*
X130760000Y-75737500D01*
%TO.N,GND*%
X135840000Y-75737500D02*
X135840000Y-84481200D01*
X135840000Y-84481200D02*
X137718800Y-86360000D01*
X137718800Y-86360000D02*
X152400000Y-86360000D01*
X138524000Y-134155200D02*
X137906800Y-134772400D01*
X137906800Y-134772400D02*
X129133600Y-134772400D01*
X129133600Y-134772400D02*
X128524000Y-134162800D01*
X128524000Y-134162800D02*
X128524000Y-132334000D01*
X138524000Y-132080000D02*
X138524000Y-134155200D01*
X145643600Y-134772400D02*
X146253200Y-134162800D01*
X138524000Y-134155200D02*
X139141200Y-134772400D01*
X139141200Y-134772400D02*
X145643600Y-134772400D01*
X146253200Y-134162800D02*
X146184000Y-134093600D01*
X146184000Y-134093600D02*
X146184000Y-132080000D01*
X146184000Y-132080000D02*
X147828000Y-132080000D01*
X147828000Y-132080000D02*
X150070000Y-129838000D01*
X150070000Y-129838000D02*
X150070000Y-116560000D01*
%TO.N,Net-(Q1-B)*%
X138910000Y-109954000D02*
X140868400Y-111912400D01*
X138910000Y-99060000D02*
X138910000Y-109954000D01*
X140868400Y-111912400D02*
X141020800Y-111760000D01*
X141020800Y-111760000D02*
X160020000Y-111760000D01*
%TO.N,VCC*%
X133300000Y-75737500D02*
X133300000Y-69240400D01*
X133300000Y-69240400D02*
X133300000Y-62535600D01*
X133300000Y-69240400D02*
X148945600Y-69240400D01*
X148945600Y-69240400D02*
X152400000Y-72694800D01*
X152400000Y-72694800D02*
X152400000Y-81360000D01*
X133300000Y-62535600D02*
X128930400Y-58166000D01*
X128930400Y-58166000D02*
X79959200Y-58166000D01*
X79959200Y-58166000D02*
X74523600Y-63601600D01*
X74523600Y-63601600D02*
X74523600Y-64008000D01*
X74523600Y-64008000D02*
X74280000Y-64251600D01*
X74280000Y-64251600D02*
X74280000Y-71700000D01*
%TO.N,Net-(U1-P2.5)*%
X160020000Y-88900000D02*
X172520000Y-88900000D01*
%TO.N,VCC*%
X160020000Y-83900000D02*
X172520000Y-83900000D01*
X160020000Y-81584800D02*
X159766000Y-81330800D01*
X160020000Y-83900000D02*
X160020000Y-81584800D01*
X159766000Y-81330800D02*
X159736800Y-81360000D01*
X159736800Y-81360000D02*
X152400000Y-81360000D01*
%TO.N,Net-(Q1-C)*%
X163068000Y-108712000D02*
X163880800Y-108712000D01*
X162560000Y-109220000D02*
X163068000Y-108712000D01*
X163880800Y-108712000D02*
X163888800Y-108720000D01*
X163888800Y-108720000D02*
X170180000Y-108720000D01*
%TO.N,Net-(M1-+)*%
X172000800Y-105460800D02*
X172821600Y-105460800D01*
X170180000Y-103640000D02*
X172000800Y-105460800D01*
X172821600Y-105460800D02*
X172872400Y-105410000D01*
X172872400Y-105410000D02*
X187237500Y-105410000D01*
%TO.N,VCC*%
X170180000Y-113800000D02*
X170180000Y-118880000D01*
%TO.N,Net-(U1-XTAL2)*%
X144272000Y-118912000D02*
X144272000Y-118364000D01*
X138724000Y-124460000D02*
X144272000Y-118912000D01*
X144272000Y-118364000D02*
X144490000Y-118146000D01*
X144490000Y-118146000D02*
X144490000Y-116560000D01*
%TO.N,Net-(U1-XTAL1)*%
X146772000Y-121412000D02*
X146812000Y-121412000D01*
X143724000Y-124460000D02*
X146772000Y-121412000D01*
X146812000Y-121412000D02*
X147280000Y-120944000D01*
X147280000Y-120944000D02*
X147280000Y-116560000D01*
X143684000Y-132080000D02*
X143684000Y-124500000D01*
X143684000Y-124500000D02*
X143724000Y-124460000D01*
%TO.N,Net-(U1-XTAL2)*%
X136024000Y-132080000D02*
X136024000Y-127160000D01*
X136024000Y-127160000D02*
X138724000Y-124460000D01*
%TO.N,Net-(U1-RST)*%
X119180000Y-124540000D02*
X128350000Y-124540000D01*
X128350000Y-124540000D02*
X128524000Y-124714000D01*
X119180000Y-124540000D02*
X119180000Y-116760000D01*
X119180000Y-116760000D02*
X119380000Y-116560000D01*
X106680000Y-124540000D02*
X119180000Y-124540000D01*
X99020000Y-124460000D02*
X106600000Y-124460000D01*
X106600000Y-124460000D02*
X106680000Y-124540000D01*
D28*
%TO.N,VCC*%
X106680000Y-129540000D02*
X119180000Y-129540000D01*
X96520000Y-128016000D02*
X98044000Y-129540000D01*
X96520000Y-124460000D02*
X96520000Y-128016000D01*
X98044000Y-129540000D02*
X106680000Y-129540000D01*
X97060000Y-99060000D02*
X93472000Y-99060000D01*
X93472000Y-99060000D02*
X90932000Y-101600000D01*
X90932000Y-101600000D02*
X90932000Y-122428000D01*
X90932000Y-122428000D02*
X92964000Y-124460000D01*
X92964000Y-124460000D02*
X96520000Y-124460000D01*
X74280000Y-71700000D02*
X74280000Y-76280000D01*
X74280000Y-76280000D02*
X97060000Y-99060000D01*
%TD*%
M02*
