M48
; DRILL file {KiCad 7.0.9-7.0.9~ubuntu22.04.1} date sex 15 dez 2023 15:57:13
; FORMAT={-:-/ absolute / inch / decimal}
; #@! TF.CreationDate,2023-12-15T15:57:13-03:00
; #@! TF.GenerationSoftware,Kicad,Pcbnew,7.0.9-7.0.9~ubuntu22.04.1
; #@! TF.FileFunction,Plated,1,2,PTH
FMAT,2
INCH
; #@! TA.AperFunction,Plated,PTH,ComponentDrill
T1C0.0197
; #@! TA.AperFunction,Plated,PTH,ComponentDrill
T2C0.0236
; #@! TA.AperFunction,Plated,PTH,ComponentDrill
T3C0.0276
; #@! TA.AperFunction,Plated,PTH,ComponentDrill
T4C0.0315
; #@! TA.AperFunction,Plated,PTH,ComponentDrill
T5C0.0354
; #@! TA.AperFunction,Plated,PTH,ComponentDrill
T6C0.0394
; #@! TA.AperFunction,Plated,PTH,ComponentDrill
T7C0.0472
; #@! TA.AperFunction,Plated,PTH,ComponentDrill
T8C0.0551
%
G90
G05
T1
X6.7Y-4.0803
X6.7Y-4.2803
X6.7Y-4.4803
X6.7Y-4.6803
T2
X3.8213Y-3.9
X3.8213Y-4.589
X3.9311Y-3.9
X3.9311Y-4.589
X4.0409Y-3.9
X4.0409Y-4.589
X4.1508Y-3.9
X4.1508Y-4.589
X4.2606Y-3.9
X4.2606Y-4.589
X4.3705Y-3.9
X4.3705Y-4.589
X4.4803Y-3.9
X4.4803Y-4.589
X4.5902Y-3.9
X4.5902Y-4.589
X4.7Y-3.9
X4.7Y-4.589
X4.8098Y-3.9
X4.8098Y-4.589
X4.9197Y-3.9
X4.9197Y-4.589
X5.0295Y-3.9
X5.0295Y-4.589
X5.1394Y-3.9
X5.1394Y-4.589
X5.2492Y-3.9
X5.2492Y-4.589
X5.3591Y-3.9
X5.3591Y-4.589
X5.4689Y-3.9
X5.4689Y-4.589
X5.5787Y-3.9
X5.5787Y-4.589
X5.6886Y-3.9
X5.6886Y-4.589
X5.7984Y-3.9
X5.7984Y-4.589
X5.9083Y-3.9
X5.9083Y-4.589
T3
X6.2Y-4.3
X6.3Y-4.4
X6.4Y-4.3
T4
X3.8Y-4.9
X3.8984Y-4.9
X5.06Y-4.91
X5.06Y-5.21
X5.3553Y-5.2
X5.4537Y-5.2
X5.4616Y-4.9
X5.6569Y-5.2
X5.6584Y-4.9
X5.7553Y-5.2
T5
X6.0Y-3.2031
X6.0Y-3.4
X6.0984Y-3.3016
T6
X6.7945Y-2.0314
X6.7945Y-2.2314
X6.8945Y-1.9314
X6.8945Y-2.0314
X6.8945Y-2.2314
X6.8945Y-2.3314
T7
X4.048Y-2.9818
X4.1478Y-2.9817
X4.2Y-4.9031
X4.2Y-5.1
X4.248Y-2.9818
X4.348Y-2.9818
X4.448Y-2.9818
X4.548Y-2.9818
X4.648Y-2.9818
X4.6921Y-4.9031
X4.6921Y-5.1
X4.748Y-2.9818
X4.848Y-2.9818
X4.948Y-2.9818
X5.048Y-2.9818
X5.148Y-2.9818
X5.248Y-2.9818
X5.348Y-2.9818
X5.4478Y-2.9817
X5.548Y-2.9818
X6.3Y-3.3031
X6.3Y-3.5
X6.7921Y-3.3031
X6.7921Y-3.5
T8
X7.3716Y-4.15
X7.3716Y-4.45
T6
G00X2.9244Y-2.8622
M15
G01X2.9244Y-2.7835
M16
G05
G00X3.1606Y-2.8484
M15
G01X3.1606Y-2.7972
M16
G05
G00X3.1705Y-2.6457
M15
G01X3.2295Y-2.6457
M16
G05
G00X3.1705Y-3.0
M15
G01X3.2295Y-3.0
M16
G05
T0
M30
