%TF.GenerationSoftware,KiCad,Pcbnew,7.0.9-7.0.9~ubuntu22.04.1*%
%TF.CreationDate,2023-12-15T15:57:02-03:00*%
%TF.ProjectId,Controle_Motor_DC,436f6e74-726f-46c6-955f-4d6f746f725f,V01*%
%TF.SameCoordinates,Original*%
%TF.FileFunction,Legend,Top*%
%TF.FilePolarity,Positive*%
%FSLAX46Y46*%
G04 Gerber Fmt 4.6, Leading zero omitted, Abs format (unit mm)*
G04 Created by KiCad (PCBNEW 7.0.9-7.0.9~ubuntu22.04.1) date 2023-12-15 15:57:02*
%MOMM*%
%LPD*%
G01*
G04 APERTURE LIST*
%ADD10C,0.300000*%
%ADD11C,0.150000*%
%ADD12C,0.100000*%
%ADD13C,0.120000*%
%ADD14C,0.200000*%
G04 APERTURE END LIST*
D10*
X77976796Y-78920428D02*
X77262510Y-78920428D01*
X77262510Y-78920428D02*
X77191082Y-79634714D01*
X77191082Y-79634714D02*
X77262510Y-79563285D01*
X77262510Y-79563285D02*
X77405368Y-79491857D01*
X77405368Y-79491857D02*
X77762510Y-79491857D01*
X77762510Y-79491857D02*
X77905368Y-79563285D01*
X77905368Y-79563285D02*
X77976796Y-79634714D01*
X77976796Y-79634714D02*
X78048225Y-79777571D01*
X78048225Y-79777571D02*
X78048225Y-80134714D01*
X78048225Y-80134714D02*
X77976796Y-80277571D01*
X77976796Y-80277571D02*
X77905368Y-80349000D01*
X77905368Y-80349000D02*
X77762510Y-80420428D01*
X77762510Y-80420428D02*
X77405368Y-80420428D01*
X77405368Y-80420428D02*
X77262510Y-80349000D01*
X77262510Y-80349000D02*
X77191082Y-80277571D01*
X78476796Y-78920428D02*
X78976796Y-80420428D01*
X78976796Y-80420428D02*
X79476796Y-78920428D01*
X81119652Y-80420428D02*
X81119652Y-78920428D01*
X81119652Y-78920428D02*
X81476795Y-78920428D01*
X81476795Y-78920428D02*
X81691081Y-78991857D01*
X81691081Y-78991857D02*
X81833938Y-79134714D01*
X81833938Y-79134714D02*
X81905367Y-79277571D01*
X81905367Y-79277571D02*
X81976795Y-79563285D01*
X81976795Y-79563285D02*
X81976795Y-79777571D01*
X81976795Y-79777571D02*
X81905367Y-80063285D01*
X81905367Y-80063285D02*
X81833938Y-80206142D01*
X81833938Y-80206142D02*
X81691081Y-80349000D01*
X81691081Y-80349000D02*
X81476795Y-80420428D01*
X81476795Y-80420428D02*
X81119652Y-80420428D01*
X83476795Y-80277571D02*
X83405367Y-80349000D01*
X83405367Y-80349000D02*
X83191081Y-80420428D01*
X83191081Y-80420428D02*
X83048224Y-80420428D01*
X83048224Y-80420428D02*
X82833938Y-80349000D01*
X82833938Y-80349000D02*
X82691081Y-80206142D01*
X82691081Y-80206142D02*
X82619652Y-80063285D01*
X82619652Y-80063285D02*
X82548224Y-79777571D01*
X82548224Y-79777571D02*
X82548224Y-79563285D01*
X82548224Y-79563285D02*
X82619652Y-79277571D01*
X82619652Y-79277571D02*
X82691081Y-79134714D01*
X82691081Y-79134714D02*
X82833938Y-78991857D01*
X82833938Y-78991857D02*
X83048224Y-78920428D01*
X83048224Y-78920428D02*
X83191081Y-78920428D01*
X83191081Y-78920428D02*
X83405367Y-78991857D01*
X83405367Y-78991857D02*
X83476795Y-79063285D01*
X196244428Y-116996689D02*
X194744428Y-116996689D01*
X194744428Y-116996689D02*
X195815857Y-116496689D01*
X195815857Y-116496689D02*
X194744428Y-115996689D01*
X194744428Y-115996689D02*
X196244428Y-115996689D01*
X194744428Y-114996688D02*
X194744428Y-114710974D01*
X194744428Y-114710974D02*
X194815857Y-114568117D01*
X194815857Y-114568117D02*
X194958714Y-114425260D01*
X194958714Y-114425260D02*
X195244428Y-114353831D01*
X195244428Y-114353831D02*
X195744428Y-114353831D01*
X195744428Y-114353831D02*
X196030142Y-114425260D01*
X196030142Y-114425260D02*
X196173000Y-114568117D01*
X196173000Y-114568117D02*
X196244428Y-114710974D01*
X196244428Y-114710974D02*
X196244428Y-114996688D01*
X196244428Y-114996688D02*
X196173000Y-115139546D01*
X196173000Y-115139546D02*
X196030142Y-115282403D01*
X196030142Y-115282403D02*
X195744428Y-115353831D01*
X195744428Y-115353831D02*
X195244428Y-115353831D01*
X195244428Y-115353831D02*
X194958714Y-115282403D01*
X194958714Y-115282403D02*
X194815857Y-115139546D01*
X194815857Y-115139546D02*
X194744428Y-114996688D01*
X194744428Y-113925259D02*
X194744428Y-113068117D01*
X196244428Y-113496688D02*
X194744428Y-113496688D01*
X194744428Y-112282402D02*
X194744428Y-111996688D01*
X194744428Y-111996688D02*
X194815857Y-111853831D01*
X194815857Y-111853831D02*
X194958714Y-111710974D01*
X194958714Y-111710974D02*
X195244428Y-111639545D01*
X195244428Y-111639545D02*
X195744428Y-111639545D01*
X195744428Y-111639545D02*
X196030142Y-111710974D01*
X196030142Y-111710974D02*
X196173000Y-111853831D01*
X196173000Y-111853831D02*
X196244428Y-111996688D01*
X196244428Y-111996688D02*
X196244428Y-112282402D01*
X196244428Y-112282402D02*
X196173000Y-112425260D01*
X196173000Y-112425260D02*
X196030142Y-112568117D01*
X196030142Y-112568117D02*
X195744428Y-112639545D01*
X195744428Y-112639545D02*
X195244428Y-112639545D01*
X195244428Y-112639545D02*
X194958714Y-112568117D01*
X194958714Y-112568117D02*
X194815857Y-112425260D01*
X194815857Y-112425260D02*
X194744428Y-112282402D01*
X196244428Y-110139545D02*
X195530142Y-110639545D01*
X196244428Y-110996688D02*
X194744428Y-110996688D01*
X194744428Y-110996688D02*
X194744428Y-110425259D01*
X194744428Y-110425259D02*
X194815857Y-110282402D01*
X194815857Y-110282402D02*
X194887285Y-110210973D01*
X194887285Y-110210973D02*
X195030142Y-110139545D01*
X195030142Y-110139545D02*
X195244428Y-110139545D01*
X195244428Y-110139545D02*
X195387285Y-110210973D01*
X195387285Y-110210973D02*
X195458714Y-110282402D01*
X195458714Y-110282402D02*
X195530142Y-110425259D01*
X195530142Y-110425259D02*
X195530142Y-110996688D01*
X196244428Y-108353831D02*
X194744428Y-108353831D01*
X194744428Y-108353831D02*
X194744428Y-107996688D01*
X194744428Y-107996688D02*
X194815857Y-107782402D01*
X194815857Y-107782402D02*
X194958714Y-107639545D01*
X194958714Y-107639545D02*
X195101571Y-107568116D01*
X195101571Y-107568116D02*
X195387285Y-107496688D01*
X195387285Y-107496688D02*
X195601571Y-107496688D01*
X195601571Y-107496688D02*
X195887285Y-107568116D01*
X195887285Y-107568116D02*
X196030142Y-107639545D01*
X196030142Y-107639545D02*
X196173000Y-107782402D01*
X196173000Y-107782402D02*
X196244428Y-107996688D01*
X196244428Y-107996688D02*
X196244428Y-108353831D01*
X196101571Y-105996688D02*
X196173000Y-106068116D01*
X196173000Y-106068116D02*
X196244428Y-106282402D01*
X196244428Y-106282402D02*
X196244428Y-106425259D01*
X196244428Y-106425259D02*
X196173000Y-106639545D01*
X196173000Y-106639545D02*
X196030142Y-106782402D01*
X196030142Y-106782402D02*
X195887285Y-106853831D01*
X195887285Y-106853831D02*
X195601571Y-106925259D01*
X195601571Y-106925259D02*
X195387285Y-106925259D01*
X195387285Y-106925259D02*
X195101571Y-106853831D01*
X195101571Y-106853831D02*
X194958714Y-106782402D01*
X194958714Y-106782402D02*
X194815857Y-106639545D01*
X194815857Y-106639545D02*
X194744428Y-106425259D01*
X194744428Y-106425259D02*
X194744428Y-106282402D01*
X194744428Y-106282402D02*
X194815857Y-106068116D01*
X194815857Y-106068116D02*
X194887285Y-105996688D01*
X194744428Y-103496688D02*
X194744428Y-104210974D01*
X194744428Y-104210974D02*
X195458714Y-104282402D01*
X195458714Y-104282402D02*
X195387285Y-104210974D01*
X195387285Y-104210974D02*
X195315857Y-104068117D01*
X195315857Y-104068117D02*
X195315857Y-103710974D01*
X195315857Y-103710974D02*
X195387285Y-103568117D01*
X195387285Y-103568117D02*
X195458714Y-103496688D01*
X195458714Y-103496688D02*
X195601571Y-103425259D01*
X195601571Y-103425259D02*
X195958714Y-103425259D01*
X195958714Y-103425259D02*
X196101571Y-103496688D01*
X196101571Y-103496688D02*
X196173000Y-103568117D01*
X196173000Y-103568117D02*
X196244428Y-103710974D01*
X196244428Y-103710974D02*
X196244428Y-104068117D01*
X196244428Y-104068117D02*
X196173000Y-104210974D01*
X196173000Y-104210974D02*
X196101571Y-104282402D01*
X194744428Y-102996688D02*
X196244428Y-102496688D01*
X196244428Y-102496688D02*
X194744428Y-101996688D01*
X110784053Y-137824428D02*
X110284053Y-137110142D01*
X109926910Y-137824428D02*
X109926910Y-136324428D01*
X109926910Y-136324428D02*
X110498339Y-136324428D01*
X110498339Y-136324428D02*
X110641196Y-136395857D01*
X110641196Y-136395857D02*
X110712625Y-136467285D01*
X110712625Y-136467285D02*
X110784053Y-136610142D01*
X110784053Y-136610142D02*
X110784053Y-136824428D01*
X110784053Y-136824428D02*
X110712625Y-136967285D01*
X110712625Y-136967285D02*
X110641196Y-137038714D01*
X110641196Y-137038714D02*
X110498339Y-137110142D01*
X110498339Y-137110142D02*
X109926910Y-137110142D01*
X111426910Y-137038714D02*
X111926910Y-137038714D01*
X112141196Y-137824428D02*
X111426910Y-137824428D01*
X111426910Y-137824428D02*
X111426910Y-136324428D01*
X111426910Y-136324428D02*
X112141196Y-136324428D01*
X112712625Y-137753000D02*
X112926911Y-137824428D01*
X112926911Y-137824428D02*
X113284053Y-137824428D01*
X113284053Y-137824428D02*
X113426911Y-137753000D01*
X113426911Y-137753000D02*
X113498339Y-137681571D01*
X113498339Y-137681571D02*
X113569768Y-137538714D01*
X113569768Y-137538714D02*
X113569768Y-137395857D01*
X113569768Y-137395857D02*
X113498339Y-137253000D01*
X113498339Y-137253000D02*
X113426911Y-137181571D01*
X113426911Y-137181571D02*
X113284053Y-137110142D01*
X113284053Y-137110142D02*
X112998339Y-137038714D01*
X112998339Y-137038714D02*
X112855482Y-136967285D01*
X112855482Y-136967285D02*
X112784053Y-136895857D01*
X112784053Y-136895857D02*
X112712625Y-136753000D01*
X112712625Y-136753000D02*
X112712625Y-136610142D01*
X112712625Y-136610142D02*
X112784053Y-136467285D01*
X112784053Y-136467285D02*
X112855482Y-136395857D01*
X112855482Y-136395857D02*
X112998339Y-136324428D01*
X112998339Y-136324428D02*
X113355482Y-136324428D01*
X113355482Y-136324428D02*
X113569768Y-136395857D01*
X114212624Y-137038714D02*
X114712624Y-137038714D01*
X114926910Y-137824428D02*
X114212624Y-137824428D01*
X114212624Y-137824428D02*
X114212624Y-136324428D01*
X114212624Y-136324428D02*
X114926910Y-136324428D01*
X115355482Y-136324428D02*
X116212625Y-136324428D01*
X115784053Y-137824428D02*
X115784053Y-136324428D01*
X160221996Y-96524028D02*
X159507710Y-96524028D01*
X159507710Y-96524028D02*
X159507710Y-95024028D01*
X160721996Y-96524028D02*
X160721996Y-95024028D01*
X162221997Y-95095457D02*
X162079140Y-95024028D01*
X162079140Y-95024028D02*
X161864854Y-95024028D01*
X161864854Y-95024028D02*
X161650568Y-95095457D01*
X161650568Y-95095457D02*
X161507711Y-95238314D01*
X161507711Y-95238314D02*
X161436282Y-95381171D01*
X161436282Y-95381171D02*
X161364854Y-95666885D01*
X161364854Y-95666885D02*
X161364854Y-95881171D01*
X161364854Y-95881171D02*
X161436282Y-96166885D01*
X161436282Y-96166885D02*
X161507711Y-96309742D01*
X161507711Y-96309742D02*
X161650568Y-96452600D01*
X161650568Y-96452600D02*
X161864854Y-96524028D01*
X161864854Y-96524028D02*
X162007711Y-96524028D01*
X162007711Y-96524028D02*
X162221997Y-96452600D01*
X162221997Y-96452600D02*
X162293425Y-96381171D01*
X162293425Y-96381171D02*
X162293425Y-95881171D01*
X162293425Y-95881171D02*
X162007711Y-95881171D01*
X162864854Y-96095457D02*
X163579140Y-96095457D01*
X162721997Y-96524028D02*
X163221997Y-95024028D01*
X163221997Y-95024028D02*
X163721997Y-96524028D01*
X165293425Y-94952600D02*
X164007711Y-96881171D01*
X165793425Y-96524028D02*
X165793425Y-95024028D01*
X165793425Y-95024028D02*
X166150568Y-95024028D01*
X166150568Y-95024028D02*
X166364854Y-95095457D01*
X166364854Y-95095457D02*
X166507711Y-95238314D01*
X166507711Y-95238314D02*
X166579140Y-95381171D01*
X166579140Y-95381171D02*
X166650568Y-95666885D01*
X166650568Y-95666885D02*
X166650568Y-95881171D01*
X166650568Y-95881171D02*
X166579140Y-96166885D01*
X166579140Y-96166885D02*
X166507711Y-96309742D01*
X166507711Y-96309742D02*
X166364854Y-96452600D01*
X166364854Y-96452600D02*
X166150568Y-96524028D01*
X166150568Y-96524028D02*
X165793425Y-96524028D01*
X167293425Y-95738314D02*
X167793425Y-95738314D01*
X168007711Y-96524028D02*
X167293425Y-96524028D01*
X167293425Y-96524028D02*
X167293425Y-95024028D01*
X167293425Y-95024028D02*
X168007711Y-95024028D01*
X168579140Y-96452600D02*
X168793426Y-96524028D01*
X168793426Y-96524028D02*
X169150568Y-96524028D01*
X169150568Y-96524028D02*
X169293426Y-96452600D01*
X169293426Y-96452600D02*
X169364854Y-96381171D01*
X169364854Y-96381171D02*
X169436283Y-96238314D01*
X169436283Y-96238314D02*
X169436283Y-96095457D01*
X169436283Y-96095457D02*
X169364854Y-95952600D01*
X169364854Y-95952600D02*
X169293426Y-95881171D01*
X169293426Y-95881171D02*
X169150568Y-95809742D01*
X169150568Y-95809742D02*
X168864854Y-95738314D01*
X168864854Y-95738314D02*
X168721997Y-95666885D01*
X168721997Y-95666885D02*
X168650568Y-95595457D01*
X168650568Y-95595457D02*
X168579140Y-95452600D01*
X168579140Y-95452600D02*
X168579140Y-95309742D01*
X168579140Y-95309742D02*
X168650568Y-95166885D01*
X168650568Y-95166885D02*
X168721997Y-95095457D01*
X168721997Y-95095457D02*
X168864854Y-95024028D01*
X168864854Y-95024028D02*
X169221997Y-95024028D01*
X169221997Y-95024028D02*
X169436283Y-95095457D01*
X170793425Y-96524028D02*
X170079139Y-96524028D01*
X170079139Y-96524028D02*
X170079139Y-95024028D01*
X171293425Y-96524028D02*
X171293425Y-95024028D01*
X172793426Y-95095457D02*
X172650569Y-95024028D01*
X172650569Y-95024028D02*
X172436283Y-95024028D01*
X172436283Y-95024028D02*
X172221997Y-95095457D01*
X172221997Y-95095457D02*
X172079140Y-95238314D01*
X172079140Y-95238314D02*
X172007711Y-95381171D01*
X172007711Y-95381171D02*
X171936283Y-95666885D01*
X171936283Y-95666885D02*
X171936283Y-95881171D01*
X171936283Y-95881171D02*
X172007711Y-96166885D01*
X172007711Y-96166885D02*
X172079140Y-96309742D01*
X172079140Y-96309742D02*
X172221997Y-96452600D01*
X172221997Y-96452600D02*
X172436283Y-96524028D01*
X172436283Y-96524028D02*
X172579140Y-96524028D01*
X172579140Y-96524028D02*
X172793426Y-96452600D01*
X172793426Y-96452600D02*
X172864854Y-96381171D01*
X172864854Y-96381171D02*
X172864854Y-95881171D01*
X172864854Y-95881171D02*
X172579140Y-95881171D01*
X173436283Y-96095457D02*
X174150569Y-96095457D01*
X173293426Y-96524028D02*
X173793426Y-95024028D01*
X173793426Y-95024028D02*
X174293426Y-96524028D01*
D11*
X142928095Y-86302319D02*
X142928095Y-87111842D01*
X142928095Y-87111842D02*
X142975714Y-87207080D01*
X142975714Y-87207080D02*
X143023333Y-87254700D01*
X143023333Y-87254700D02*
X143118571Y-87302319D01*
X143118571Y-87302319D02*
X143309047Y-87302319D01*
X143309047Y-87302319D02*
X143404285Y-87254700D01*
X143404285Y-87254700D02*
X143451904Y-87207080D01*
X143451904Y-87207080D02*
X143499523Y-87111842D01*
X143499523Y-87111842D02*
X143499523Y-86302319D01*
X143928095Y-86397557D02*
X143975714Y-86349938D01*
X143975714Y-86349938D02*
X144070952Y-86302319D01*
X144070952Y-86302319D02*
X144309047Y-86302319D01*
X144309047Y-86302319D02*
X144404285Y-86349938D01*
X144404285Y-86349938D02*
X144451904Y-86397557D01*
X144451904Y-86397557D02*
X144499523Y-86492795D01*
X144499523Y-86492795D02*
X144499523Y-86588033D01*
X144499523Y-86588033D02*
X144451904Y-86730890D01*
X144451904Y-86730890D02*
X143880476Y-87302319D01*
X143880476Y-87302319D02*
X144499523Y-87302319D01*
X137107333Y-129939580D02*
X137059714Y-129987200D01*
X137059714Y-129987200D02*
X136916857Y-130034819D01*
X136916857Y-130034819D02*
X136821619Y-130034819D01*
X136821619Y-130034819D02*
X136678762Y-129987200D01*
X136678762Y-129987200D02*
X136583524Y-129891961D01*
X136583524Y-129891961D02*
X136535905Y-129796723D01*
X136535905Y-129796723D02*
X136488286Y-129606247D01*
X136488286Y-129606247D02*
X136488286Y-129463390D01*
X136488286Y-129463390D02*
X136535905Y-129272914D01*
X136535905Y-129272914D02*
X136583524Y-129177676D01*
X136583524Y-129177676D02*
X136678762Y-129082438D01*
X136678762Y-129082438D02*
X136821619Y-129034819D01*
X136821619Y-129034819D02*
X136916857Y-129034819D01*
X136916857Y-129034819D02*
X137059714Y-129082438D01*
X137059714Y-129082438D02*
X137107333Y-129130057D01*
X138059714Y-130034819D02*
X137488286Y-130034819D01*
X137774000Y-130034819D02*
X137774000Y-129034819D01*
X137774000Y-129034819D02*
X137678762Y-129177676D01*
X137678762Y-129177676D02*
X137583524Y-129272914D01*
X137583524Y-129272914D02*
X137488286Y-129320533D01*
X151804761Y-79754819D02*
X151471428Y-79278628D01*
X151233333Y-79754819D02*
X151233333Y-78754819D01*
X151233333Y-78754819D02*
X151614285Y-78754819D01*
X151614285Y-78754819D02*
X151709523Y-78802438D01*
X151709523Y-78802438D02*
X151757142Y-78850057D01*
X151757142Y-78850057D02*
X151804761Y-78945295D01*
X151804761Y-78945295D02*
X151804761Y-79088152D01*
X151804761Y-79088152D02*
X151757142Y-79183390D01*
X151757142Y-79183390D02*
X151709523Y-79231009D01*
X151709523Y-79231009D02*
X151614285Y-79278628D01*
X151614285Y-79278628D02*
X151233333Y-79278628D01*
X152090476Y-78754819D02*
X152423809Y-79754819D01*
X152423809Y-79754819D02*
X152757142Y-78754819D01*
X153614285Y-79754819D02*
X153042857Y-79754819D01*
X153328571Y-79754819D02*
X153328571Y-78754819D01*
X153328571Y-78754819D02*
X153233333Y-78897676D01*
X153233333Y-78897676D02*
X153138095Y-78992914D01*
X153138095Y-78992914D02*
X153042857Y-79040533D01*
X97603333Y-121069580D02*
X97555714Y-121117200D01*
X97555714Y-121117200D02*
X97412857Y-121164819D01*
X97412857Y-121164819D02*
X97317619Y-121164819D01*
X97317619Y-121164819D02*
X97174762Y-121117200D01*
X97174762Y-121117200D02*
X97079524Y-121021961D01*
X97079524Y-121021961D02*
X97031905Y-120926723D01*
X97031905Y-120926723D02*
X96984286Y-120736247D01*
X96984286Y-120736247D02*
X96984286Y-120593390D01*
X96984286Y-120593390D02*
X97031905Y-120402914D01*
X97031905Y-120402914D02*
X97079524Y-120307676D01*
X97079524Y-120307676D02*
X97174762Y-120212438D01*
X97174762Y-120212438D02*
X97317619Y-120164819D01*
X97317619Y-120164819D02*
X97412857Y-120164819D01*
X97412857Y-120164819D02*
X97555714Y-120212438D01*
X97555714Y-120212438D02*
X97603333Y-120260057D01*
X97936667Y-120164819D02*
X98555714Y-120164819D01*
X98555714Y-120164819D02*
X98222381Y-120545771D01*
X98222381Y-120545771D02*
X98365238Y-120545771D01*
X98365238Y-120545771D02*
X98460476Y-120593390D01*
X98460476Y-120593390D02*
X98508095Y-120641009D01*
X98508095Y-120641009D02*
X98555714Y-120736247D01*
X98555714Y-120736247D02*
X98555714Y-120974342D01*
X98555714Y-120974342D02*
X98508095Y-121069580D01*
X98508095Y-121069580D02*
X98460476Y-121117200D01*
X98460476Y-121117200D02*
X98365238Y-121164819D01*
X98365238Y-121164819D02*
X98079524Y-121164819D01*
X98079524Y-121164819D02*
X97984286Y-121117200D01*
X97984286Y-121117200D02*
X97936667Y-121069580D01*
X111696667Y-120287200D02*
X111839524Y-120334819D01*
X111839524Y-120334819D02*
X112077619Y-120334819D01*
X112077619Y-120334819D02*
X112172857Y-120287200D01*
X112172857Y-120287200D02*
X112220476Y-120239580D01*
X112220476Y-120239580D02*
X112268095Y-120144342D01*
X112268095Y-120144342D02*
X112268095Y-120049104D01*
X112268095Y-120049104D02*
X112220476Y-119953866D01*
X112220476Y-119953866D02*
X112172857Y-119906247D01*
X112172857Y-119906247D02*
X112077619Y-119858628D01*
X112077619Y-119858628D02*
X111887143Y-119811009D01*
X111887143Y-119811009D02*
X111791905Y-119763390D01*
X111791905Y-119763390D02*
X111744286Y-119715771D01*
X111744286Y-119715771D02*
X111696667Y-119620533D01*
X111696667Y-119620533D02*
X111696667Y-119525295D01*
X111696667Y-119525295D02*
X111744286Y-119430057D01*
X111744286Y-119430057D02*
X111791905Y-119382438D01*
X111791905Y-119382438D02*
X111887143Y-119334819D01*
X111887143Y-119334819D02*
X112125238Y-119334819D01*
X112125238Y-119334819D02*
X112268095Y-119382438D01*
X112601429Y-119334819D02*
X112839524Y-120334819D01*
X112839524Y-120334819D02*
X113030000Y-119620533D01*
X113030000Y-119620533D02*
X113220476Y-120334819D01*
X113220476Y-120334819D02*
X113458572Y-119334819D01*
X114363333Y-120334819D02*
X113791905Y-120334819D01*
X114077619Y-120334819D02*
X114077619Y-119334819D01*
X114077619Y-119334819D02*
X113982381Y-119477676D01*
X113982381Y-119477676D02*
X113887143Y-119572914D01*
X113887143Y-119572914D02*
X113791905Y-119620533D01*
D12*
X177277419Y-112458094D02*
X176277419Y-112458094D01*
X177277419Y-111886666D02*
X176705990Y-112315237D01*
X176277419Y-111886666D02*
X176848847Y-112458094D01*
X177277419Y-110934285D02*
X177277419Y-111505713D01*
X177277419Y-111219999D02*
X176277419Y-111219999D01*
X176277419Y-111219999D02*
X176420276Y-111315237D01*
X176420276Y-111315237D02*
X176515514Y-111410475D01*
X176515514Y-111410475D02*
X176563133Y-111505713D01*
X171661466Y-109006115D02*
X171661466Y-108244211D01*
X171721466Y-114236115D02*
X171721466Y-113474211D01*
X172102419Y-113855163D02*
X171340514Y-113855163D01*
D11*
X165036667Y-79647200D02*
X165179524Y-79694819D01*
X165179524Y-79694819D02*
X165417619Y-79694819D01*
X165417619Y-79694819D02*
X165512857Y-79647200D01*
X165512857Y-79647200D02*
X165560476Y-79599580D01*
X165560476Y-79599580D02*
X165608095Y-79504342D01*
X165608095Y-79504342D02*
X165608095Y-79409104D01*
X165608095Y-79409104D02*
X165560476Y-79313866D01*
X165560476Y-79313866D02*
X165512857Y-79266247D01*
X165512857Y-79266247D02*
X165417619Y-79218628D01*
X165417619Y-79218628D02*
X165227143Y-79171009D01*
X165227143Y-79171009D02*
X165131905Y-79123390D01*
X165131905Y-79123390D02*
X165084286Y-79075771D01*
X165084286Y-79075771D02*
X165036667Y-78980533D01*
X165036667Y-78980533D02*
X165036667Y-78885295D01*
X165036667Y-78885295D02*
X165084286Y-78790057D01*
X165084286Y-78790057D02*
X165131905Y-78742438D01*
X165131905Y-78742438D02*
X165227143Y-78694819D01*
X165227143Y-78694819D02*
X165465238Y-78694819D01*
X165465238Y-78694819D02*
X165608095Y-78742438D01*
X165941429Y-78694819D02*
X166179524Y-79694819D01*
X166179524Y-79694819D02*
X166370000Y-78980533D01*
X166370000Y-78980533D02*
X166560476Y-79694819D01*
X166560476Y-79694819D02*
X166798572Y-78694819D01*
X167131905Y-78790057D02*
X167179524Y-78742438D01*
X167179524Y-78742438D02*
X167274762Y-78694819D01*
X167274762Y-78694819D02*
X167512857Y-78694819D01*
X167512857Y-78694819D02*
X167608095Y-78742438D01*
X167608095Y-78742438D02*
X167655714Y-78790057D01*
X167655714Y-78790057D02*
X167703333Y-78885295D01*
X167703333Y-78885295D02*
X167703333Y-78980533D01*
X167703333Y-78980533D02*
X167655714Y-79123390D01*
X167655714Y-79123390D02*
X167084286Y-79694819D01*
X167084286Y-79694819D02*
X167703333Y-79694819D01*
D12*
X123978095Y-120487419D02*
X123978095Y-121296942D01*
X123978095Y-121296942D02*
X124025714Y-121392180D01*
X124025714Y-121392180D02*
X124073333Y-121439800D01*
X124073333Y-121439800D02*
X124168571Y-121487419D01*
X124168571Y-121487419D02*
X124359047Y-121487419D01*
X124359047Y-121487419D02*
X124454285Y-121439800D01*
X124454285Y-121439800D02*
X124501904Y-121392180D01*
X124501904Y-121392180D02*
X124549523Y-121296942D01*
X124549523Y-121296942D02*
X124549523Y-120487419D01*
X125549523Y-121487419D02*
X124978095Y-121487419D01*
X125263809Y-121487419D02*
X125263809Y-120487419D01*
X125263809Y-120487419D02*
X125168571Y-120630276D01*
X125168571Y-120630276D02*
X125073333Y-120725514D01*
X125073333Y-120725514D02*
X124978095Y-120773133D01*
D11*
X140747809Y-128138628D02*
X140747809Y-128614819D01*
X140414476Y-127614819D02*
X140747809Y-128138628D01*
X140747809Y-128138628D02*
X141081142Y-127614819D01*
X141938285Y-128614819D02*
X141366857Y-128614819D01*
X141652571Y-128614819D02*
X141652571Y-127614819D01*
X141652571Y-127614819D02*
X141557333Y-127757676D01*
X141557333Y-127757676D02*
X141462095Y-127852914D01*
X141462095Y-127852914D02*
X141366857Y-127900533D01*
X159924761Y-103950057D02*
X159829523Y-103902438D01*
X159829523Y-103902438D02*
X159734285Y-103807200D01*
X159734285Y-103807200D02*
X159591428Y-103664342D01*
X159591428Y-103664342D02*
X159496190Y-103616723D01*
X159496190Y-103616723D02*
X159400952Y-103616723D01*
X159448571Y-103854819D02*
X159353333Y-103807200D01*
X159353333Y-103807200D02*
X159258095Y-103711961D01*
X159258095Y-103711961D02*
X159210476Y-103521485D01*
X159210476Y-103521485D02*
X159210476Y-103188152D01*
X159210476Y-103188152D02*
X159258095Y-102997676D01*
X159258095Y-102997676D02*
X159353333Y-102902438D01*
X159353333Y-102902438D02*
X159448571Y-102854819D01*
X159448571Y-102854819D02*
X159639047Y-102854819D01*
X159639047Y-102854819D02*
X159734285Y-102902438D01*
X159734285Y-102902438D02*
X159829523Y-102997676D01*
X159829523Y-102997676D02*
X159877142Y-103188152D01*
X159877142Y-103188152D02*
X159877142Y-103521485D01*
X159877142Y-103521485D02*
X159829523Y-103711961D01*
X159829523Y-103711961D02*
X159734285Y-103807200D01*
X159734285Y-103807200D02*
X159639047Y-103854819D01*
X159639047Y-103854819D02*
X159448571Y-103854819D01*
X160829523Y-103854819D02*
X160258095Y-103854819D01*
X160543809Y-103854819D02*
X160543809Y-102854819D01*
X160543809Y-102854819D02*
X160448571Y-102997676D01*
X160448571Y-102997676D02*
X160353333Y-103092914D01*
X160353333Y-103092914D02*
X160258095Y-103140533D01*
X131348819Y-128690666D02*
X130872628Y-129023999D01*
X131348819Y-129262094D02*
X130348819Y-129262094D01*
X130348819Y-129262094D02*
X130348819Y-128881142D01*
X130348819Y-128881142D02*
X130396438Y-128785904D01*
X130396438Y-128785904D02*
X130444057Y-128738285D01*
X130444057Y-128738285D02*
X130539295Y-128690666D01*
X130539295Y-128690666D02*
X130682152Y-128690666D01*
X130682152Y-128690666D02*
X130777390Y-128738285D01*
X130777390Y-128738285D02*
X130825009Y-128785904D01*
X130825009Y-128785904D02*
X130872628Y-128881142D01*
X130872628Y-128881142D02*
X130872628Y-129262094D01*
X131348819Y-127738285D02*
X131348819Y-128309713D01*
X131348819Y-128023999D02*
X130348819Y-128023999D01*
X130348819Y-128023999D02*
X130491676Y-128119237D01*
X130491676Y-128119237D02*
X130586914Y-128214475D01*
X130586914Y-128214475D02*
X130634533Y-128309713D01*
X71911009Y-72485714D02*
X71958628Y-72342857D01*
X71958628Y-72342857D02*
X72006247Y-72295238D01*
X72006247Y-72295238D02*
X72101485Y-72247619D01*
X72101485Y-72247619D02*
X72244342Y-72247619D01*
X72244342Y-72247619D02*
X72339580Y-72295238D01*
X72339580Y-72295238D02*
X72387200Y-72342857D01*
X72387200Y-72342857D02*
X72434819Y-72438095D01*
X72434819Y-72438095D02*
X72434819Y-72819047D01*
X72434819Y-72819047D02*
X71434819Y-72819047D01*
X71434819Y-72819047D02*
X71434819Y-72485714D01*
X71434819Y-72485714D02*
X71482438Y-72390476D01*
X71482438Y-72390476D02*
X71530057Y-72342857D01*
X71530057Y-72342857D02*
X71625295Y-72295238D01*
X71625295Y-72295238D02*
X71720533Y-72295238D01*
X71720533Y-72295238D02*
X71815771Y-72342857D01*
X71815771Y-72342857D02*
X71863390Y-72390476D01*
X71863390Y-72390476D02*
X71911009Y-72485714D01*
X71911009Y-72485714D02*
X71911009Y-72819047D01*
X71434819Y-71961904D02*
X71434819Y-71390476D01*
X72434819Y-71676190D02*
X71434819Y-71676190D01*
X72434819Y-70533333D02*
X72434819Y-71104761D01*
X72434819Y-70819047D02*
X71434819Y-70819047D01*
X71434819Y-70819047D02*
X71577676Y-70914285D01*
X71577676Y-70914285D02*
X71672914Y-71009523D01*
X71672914Y-71009523D02*
X71720533Y-71104761D01*
X144767333Y-129939580D02*
X144719714Y-129987200D01*
X144719714Y-129987200D02*
X144576857Y-130034819D01*
X144576857Y-130034819D02*
X144481619Y-130034819D01*
X144481619Y-130034819D02*
X144338762Y-129987200D01*
X144338762Y-129987200D02*
X144243524Y-129891961D01*
X144243524Y-129891961D02*
X144195905Y-129796723D01*
X144195905Y-129796723D02*
X144148286Y-129606247D01*
X144148286Y-129606247D02*
X144148286Y-129463390D01*
X144148286Y-129463390D02*
X144195905Y-129272914D01*
X144195905Y-129272914D02*
X144243524Y-129177676D01*
X144243524Y-129177676D02*
X144338762Y-129082438D01*
X144338762Y-129082438D02*
X144481619Y-129034819D01*
X144481619Y-129034819D02*
X144576857Y-129034819D01*
X144576857Y-129034819D02*
X144719714Y-129082438D01*
X144719714Y-129082438D02*
X144767333Y-129130057D01*
X145148286Y-129130057D02*
X145195905Y-129082438D01*
X145195905Y-129082438D02*
X145291143Y-129034819D01*
X145291143Y-129034819D02*
X145529238Y-129034819D01*
X145529238Y-129034819D02*
X145624476Y-129082438D01*
X145624476Y-129082438D02*
X145672095Y-129130057D01*
X145672095Y-129130057D02*
X145719714Y-129225295D01*
X145719714Y-129225295D02*
X145719714Y-129320533D01*
X145719714Y-129320533D02*
X145672095Y-129463390D01*
X145672095Y-129463390D02*
X145100667Y-130034819D01*
X145100667Y-130034819D02*
X145719714Y-130034819D01*
X193692319Y-110029523D02*
X192692319Y-110029523D01*
X192692319Y-110029523D02*
X193406604Y-109696190D01*
X193406604Y-109696190D02*
X192692319Y-109362857D01*
X192692319Y-109362857D02*
X193692319Y-109362857D01*
X193692319Y-108362857D02*
X193692319Y-108934285D01*
X193692319Y-108648571D02*
X192692319Y-108648571D01*
X192692319Y-108648571D02*
X192835176Y-108743809D01*
X192835176Y-108743809D02*
X192930414Y-108839047D01*
X192930414Y-108839047D02*
X192978033Y-108934285D01*
D13*
%TO.C,U2*%
X176760000Y-77877500D02*
X92480000Y-77877500D01*
X176760000Y-38847500D02*
X176760000Y-77877500D01*
X176760000Y-38847500D02*
X174940000Y-38847500D01*
X176760000Y-36627500D02*
X174940000Y-36627500D01*
X176760000Y-33597500D02*
X176760000Y-36627500D01*
X169840000Y-66737500D02*
X98840000Y-66737500D01*
X169840000Y-41737500D02*
X169840000Y-66737500D01*
X167840000Y-46737500D02*
X167840000Y-60737500D01*
X166840000Y-61737500D02*
X102840000Y-61737500D01*
X137340000Y-78237500D02*
X134340000Y-78237500D01*
X102840000Y-45737500D02*
X166840000Y-45737500D01*
X101810000Y-60737500D02*
X101810000Y-46737500D01*
X98840000Y-66737500D02*
X98840000Y-41737500D01*
X98840000Y-41737500D02*
X169840000Y-41737500D01*
X94340000Y-36627500D02*
X92480000Y-36627500D01*
X92480000Y-77877500D02*
X92480000Y-38847500D01*
X92480000Y-38847500D02*
X94340000Y-38847500D01*
X92480000Y-36627500D02*
X92480000Y-33597500D01*
X92480000Y-33597500D02*
X176760000Y-33597500D01*
X174940000Y-38847500D02*
G75*
G03*
X175230000Y-36917500I-820000J1110000D01*
G01*
X175230000Y-38557500D02*
G75*
G03*
X174940000Y-36627500I-1110000J820000D01*
G01*
X166844640Y-61733260D02*
G75*
G03*
X167842860Y-60735040I0J998220D01*
G01*
X167835400Y-46714560D02*
G75*
G03*
X166834640Y-45713800I-1000761J-1D01*
G01*
X101806040Y-60745040D02*
G75*
G03*
X102804260Y-61743260I998260J40D01*
G01*
X102814260Y-45733800D02*
G75*
G03*
X101813500Y-46734560I40J-1000800D01*
G01*
X94000001Y-36967500D02*
G75*
G03*
X94340000Y-38847499I1109999J-770000D01*
G01*
X94330000Y-36617501D02*
G75*
G03*
X94000001Y-38527500I790000J-1119999D01*
G01*
%TO.C,C1*%
X135154000Y-130710000D02*
X135154000Y-131415000D01*
X135154000Y-130710000D02*
X139394000Y-130710000D01*
X135154000Y-132745000D02*
X135154000Y-133450000D01*
X135154000Y-133450000D02*
X139394000Y-133450000D01*
X139394000Y-130710000D02*
X139394000Y-131415000D01*
X139394000Y-132745000D02*
X139394000Y-133450000D01*
%TO.C,RV1*%
X152279000Y-82426000D02*
X152279000Y-85295000D01*
X152279000Y-82740000D02*
X152279000Y-84980000D01*
X152279000Y-82740000D02*
X156020000Y-82740000D01*
X152279000Y-84980000D02*
X156020000Y-84980000D01*
X153325000Y-80590000D02*
X156020000Y-80590000D01*
X153325000Y-87130000D02*
X156020000Y-87130000D01*
X156020000Y-80590000D02*
X156020000Y-87130000D01*
X156020000Y-82740000D02*
X156020000Y-84980000D01*
%TO.C,C3*%
X94965225Y-122985000D02*
X95465225Y-122985000D01*
X95215225Y-122735000D02*
X95215225Y-123235000D01*
X97770000Y-121880000D02*
X97770000Y-127040000D01*
X97810000Y-121880000D02*
X97810000Y-127040000D01*
X97850000Y-121881000D02*
X97850000Y-127039000D01*
X97890000Y-121882000D02*
X97890000Y-127038000D01*
X97930000Y-121884000D02*
X97930000Y-127036000D01*
X97970000Y-121887000D02*
X97970000Y-127033000D01*
X98010000Y-121891000D02*
X98010000Y-123420000D01*
X98010000Y-125500000D02*
X98010000Y-127029000D01*
X98050000Y-121895000D02*
X98050000Y-123420000D01*
X98050000Y-125500000D02*
X98050000Y-127025000D01*
X98090000Y-121899000D02*
X98090000Y-123420000D01*
X98090000Y-125500000D02*
X98090000Y-127021000D01*
X98130000Y-121904000D02*
X98130000Y-123420000D01*
X98130000Y-125500000D02*
X98130000Y-127016000D01*
X98170000Y-121910000D02*
X98170000Y-123420000D01*
X98170000Y-125500000D02*
X98170000Y-127010000D01*
X98210000Y-121917000D02*
X98210000Y-123420000D01*
X98210000Y-125500000D02*
X98210000Y-127003000D01*
X98250000Y-121924000D02*
X98250000Y-123420000D01*
X98250000Y-125500000D02*
X98250000Y-126996000D01*
X98290000Y-121932000D02*
X98290000Y-123420000D01*
X98290000Y-125500000D02*
X98290000Y-126988000D01*
X98330000Y-121940000D02*
X98330000Y-123420000D01*
X98330000Y-125500000D02*
X98330000Y-126980000D01*
X98370000Y-121949000D02*
X98370000Y-123420000D01*
X98370000Y-125500000D02*
X98370000Y-126971000D01*
X98410000Y-121959000D02*
X98410000Y-123420000D01*
X98410000Y-125500000D02*
X98410000Y-126961000D01*
X98450000Y-121969000D02*
X98450000Y-123420000D01*
X98450000Y-125500000D02*
X98450000Y-126951000D01*
X98491000Y-121980000D02*
X98491000Y-123420000D01*
X98491000Y-125500000D02*
X98491000Y-126940000D01*
X98531000Y-121992000D02*
X98531000Y-123420000D01*
X98531000Y-125500000D02*
X98531000Y-126928000D01*
X98571000Y-122005000D02*
X98571000Y-123420000D01*
X98571000Y-125500000D02*
X98571000Y-126915000D01*
X98611000Y-122018000D02*
X98611000Y-123420000D01*
X98611000Y-125500000D02*
X98611000Y-126902000D01*
X98651000Y-122032000D02*
X98651000Y-123420000D01*
X98651000Y-125500000D02*
X98651000Y-126888000D01*
X98691000Y-122046000D02*
X98691000Y-123420000D01*
X98691000Y-125500000D02*
X98691000Y-126874000D01*
X98731000Y-122062000D02*
X98731000Y-123420000D01*
X98731000Y-125500000D02*
X98731000Y-126858000D01*
X98771000Y-122078000D02*
X98771000Y-123420000D01*
X98771000Y-125500000D02*
X98771000Y-126842000D01*
X98811000Y-122095000D02*
X98811000Y-123420000D01*
X98811000Y-125500000D02*
X98811000Y-126825000D01*
X98851000Y-122112000D02*
X98851000Y-123420000D01*
X98851000Y-125500000D02*
X98851000Y-126808000D01*
X98891000Y-122131000D02*
X98891000Y-123420000D01*
X98891000Y-125500000D02*
X98891000Y-126789000D01*
X98931000Y-122150000D02*
X98931000Y-123420000D01*
X98931000Y-125500000D02*
X98931000Y-126770000D01*
X98971000Y-122170000D02*
X98971000Y-123420000D01*
X98971000Y-125500000D02*
X98971000Y-126750000D01*
X99011000Y-122192000D02*
X99011000Y-123420000D01*
X99011000Y-125500000D02*
X99011000Y-126728000D01*
X99051000Y-122213000D02*
X99051000Y-123420000D01*
X99051000Y-125500000D02*
X99051000Y-126707000D01*
X99091000Y-122236000D02*
X99091000Y-123420000D01*
X99091000Y-125500000D02*
X99091000Y-126684000D01*
X99131000Y-122260000D02*
X99131000Y-123420000D01*
X99131000Y-125500000D02*
X99131000Y-126660000D01*
X99171000Y-122285000D02*
X99171000Y-123420000D01*
X99171000Y-125500000D02*
X99171000Y-126635000D01*
X99211000Y-122311000D02*
X99211000Y-123420000D01*
X99211000Y-125500000D02*
X99211000Y-126609000D01*
X99251000Y-122338000D02*
X99251000Y-123420000D01*
X99251000Y-125500000D02*
X99251000Y-126582000D01*
X99291000Y-122365000D02*
X99291000Y-123420000D01*
X99291000Y-125500000D02*
X99291000Y-126555000D01*
X99331000Y-122395000D02*
X99331000Y-123420000D01*
X99331000Y-125500000D02*
X99331000Y-126525000D01*
X99371000Y-122425000D02*
X99371000Y-123420000D01*
X99371000Y-125500000D02*
X99371000Y-126495000D01*
X99411000Y-122456000D02*
X99411000Y-123420000D01*
X99411000Y-125500000D02*
X99411000Y-126464000D01*
X99451000Y-122489000D02*
X99451000Y-123420000D01*
X99451000Y-125500000D02*
X99451000Y-126431000D01*
X99491000Y-122523000D02*
X99491000Y-123420000D01*
X99491000Y-125500000D02*
X99491000Y-126397000D01*
X99531000Y-122559000D02*
X99531000Y-123420000D01*
X99531000Y-125500000D02*
X99531000Y-126361000D01*
X99571000Y-122596000D02*
X99571000Y-123420000D01*
X99571000Y-125500000D02*
X99571000Y-126324000D01*
X99611000Y-122634000D02*
X99611000Y-123420000D01*
X99611000Y-125500000D02*
X99611000Y-126286000D01*
X99651000Y-122675000D02*
X99651000Y-123420000D01*
X99651000Y-125500000D02*
X99651000Y-126245000D01*
X99691000Y-122717000D02*
X99691000Y-123420000D01*
X99691000Y-125500000D02*
X99691000Y-126203000D01*
X99731000Y-122761000D02*
X99731000Y-123420000D01*
X99731000Y-125500000D02*
X99731000Y-126159000D01*
X99771000Y-122807000D02*
X99771000Y-123420000D01*
X99771000Y-125500000D02*
X99771000Y-126113000D01*
X99811000Y-122855000D02*
X99811000Y-123420000D01*
X99811000Y-125500000D02*
X99811000Y-126065000D01*
X99851000Y-122906000D02*
X99851000Y-123420000D01*
X99851000Y-125500000D02*
X99851000Y-126014000D01*
X99891000Y-122960000D02*
X99891000Y-123420000D01*
X99891000Y-125500000D02*
X99891000Y-125960000D01*
X99931000Y-123017000D02*
X99931000Y-123420000D01*
X99931000Y-125500000D02*
X99931000Y-125903000D01*
X99971000Y-123077000D02*
X99971000Y-123420000D01*
X99971000Y-125500000D02*
X99971000Y-125843000D01*
X100011000Y-123141000D02*
X100011000Y-123420000D01*
X100011000Y-125500000D02*
X100011000Y-125779000D01*
X100051000Y-123209000D02*
X100051000Y-123420000D01*
X100051000Y-125500000D02*
X100051000Y-125711000D01*
X100091000Y-123282000D02*
X100091000Y-125638000D01*
X100131000Y-123362000D02*
X100131000Y-125558000D01*
X100171000Y-123449000D02*
X100171000Y-125471000D01*
X100211000Y-123545000D02*
X100211000Y-125375000D01*
X100251000Y-123655000D02*
X100251000Y-125265000D01*
X100291000Y-123783000D02*
X100291000Y-125137000D01*
X100331000Y-123942000D02*
X100331000Y-124978000D01*
X100371000Y-124176000D02*
X100371000Y-124744000D01*
X100390000Y-124460000D02*
G75*
G03*
X100390000Y-124460000I-2620000J0D01*
G01*
%TO.C,SW1*%
X106780000Y-120890000D02*
X119080000Y-120890000D01*
X106780000Y-123010000D02*
X106780000Y-120890000D01*
X106780000Y-128010000D02*
X106780000Y-126070000D01*
X106780000Y-133190000D02*
X106780000Y-131070000D01*
X119080000Y-120890000D02*
X119080000Y-123010000D01*
X119080000Y-126070000D02*
X119080000Y-128010000D01*
X119080000Y-131070000D02*
X119080000Y-133190000D01*
X119080000Y-133190000D02*
X106780000Y-133190000D01*
X117609050Y-127080000D02*
G75*
G03*
X117609050Y-127080000I-4579050J0D01*
G01*
%TO.C,SW2*%
X160120000Y-80250000D02*
X172420000Y-80250000D01*
X160120000Y-82370000D02*
X160120000Y-80250000D01*
X160120000Y-87370000D02*
X160120000Y-85430000D01*
X160120000Y-92550000D02*
X160120000Y-90430000D01*
X172420000Y-80250000D02*
X172420000Y-82370000D01*
X172420000Y-85430000D02*
X172420000Y-87370000D01*
X172420000Y-90430000D02*
X172420000Y-92550000D01*
X172420000Y-92550000D02*
X160120000Y-92550000D01*
X170949050Y-86440000D02*
G75*
G03*
X170949050Y-86440000I-4579050J0D01*
G01*
D14*
%TO.C,U1*%
X96370000Y-116560000D02*
X96360000Y-99060000D01*
X150785000Y-116560000D02*
X150775000Y-99060000D01*
D12*
X96360000Y-117160000D02*
G75*
G03*
X96360000Y-117160000I-300000J0D01*
G01*
D13*
%TO.C,Y1*%
X143724000Y-127160000D02*
X138724000Y-127160000D01*
X143724000Y-121760000D02*
X138724000Y-121760000D01*
X143724000Y-127160000D02*
G75*
G03*
X143724000Y-121760000I0J2700000D01*
G01*
X138724000Y-121760000D02*
G75*
G03*
X138724000Y-127160000I0J-2700000D01*
G01*
%TO.C,Q1*%
X155354144Y-105331961D02*
X156245098Y-106222916D01*
X156131961Y-104554144D02*
X155354144Y-105331961D01*
X157022916Y-105445098D02*
X156131961Y-104554144D01*
X156245327Y-106222629D02*
G75*
G03*
X157022916Y-105445099I3774673J-2997371D01*
G01*
%TO.C,R1*%
X129894000Y-125254000D02*
X129894000Y-131794000D01*
X129564000Y-125254000D02*
X129894000Y-125254000D01*
X127484000Y-125254000D02*
X127154000Y-125254000D01*
X127154000Y-125254000D02*
X127154000Y-131794000D01*
X129894000Y-131794000D02*
X129564000Y-131794000D01*
X127154000Y-131794000D02*
X127484000Y-131794000D01*
%TO.C,BT1*%
X73170000Y-76810000D02*
X73170000Y-74000000D01*
X79230000Y-76810000D02*
X73170000Y-76810000D01*
X86390000Y-76810000D02*
X83330000Y-76810000D01*
X72980000Y-72700000D02*
X72980000Y-70700000D01*
X73170000Y-69400000D02*
X73170000Y-66590000D01*
X73170000Y-66590000D02*
X79230000Y-66590000D01*
X83330000Y-66590000D02*
X86390000Y-66590000D01*
X86390000Y-66590000D02*
X86390000Y-76810000D01*
%TO.C,C2*%
X142814000Y-130710000D02*
X142814000Y-131415000D01*
X142814000Y-130710000D02*
X147054000Y-130710000D01*
X142814000Y-132745000D02*
X142814000Y-133450000D01*
X142814000Y-133450000D02*
X147054000Y-133450000D01*
X147054000Y-130710000D02*
X147054000Y-131415000D01*
X147054000Y-132745000D02*
X147054000Y-133450000D01*
%TO.C,M1*%
X192147500Y-96200000D02*
X183327500Y-96200000D01*
X191337500Y-96200000D02*
X191337500Y-98200000D01*
X183327500Y-96200000D02*
X183327500Y-122240000D01*
X192147500Y-98310000D02*
X192147500Y-100310000D01*
X190337500Y-98310000D02*
X192147500Y-98310000D01*
X192147500Y-100310000D02*
X190337500Y-100310000D01*
X191337500Y-100310000D02*
X191337500Y-104410000D01*
X190337500Y-100310000D02*
X190337500Y-98310000D01*
X190337500Y-102400000D02*
X190337500Y-116040000D01*
X185037500Y-102400000D02*
X190337500Y-102400000D01*
X185037500Y-103410000D02*
X185037500Y-102400000D01*
X192147500Y-104410000D02*
X192147500Y-106410000D01*
X190337500Y-104410000D02*
X192147500Y-104410000D01*
X192947500Y-105110000D02*
X192947500Y-105710000D01*
X192347500Y-105410000D02*
X192947500Y-105110000D01*
X192947500Y-105710000D02*
X192347500Y-105410000D01*
X192147500Y-106410000D02*
X190337500Y-106410000D01*
X191337500Y-106410000D02*
X191337500Y-112030000D01*
X190337500Y-106410000D02*
X190337500Y-104410000D01*
X185037500Y-107410000D02*
X185037500Y-111030000D01*
X192147500Y-112030000D02*
X192147500Y-114030000D01*
X190337500Y-112030000D02*
X192147500Y-112030000D01*
X192147500Y-114030000D02*
X190337500Y-114030000D01*
X191337500Y-114030000D02*
X191337500Y-118130000D01*
X190337500Y-114030000D02*
X190337500Y-112030000D01*
X190337500Y-116040000D02*
X185037500Y-116040000D01*
X185037500Y-116040000D02*
X185037500Y-115030000D01*
X192147500Y-118130000D02*
X192147500Y-120130000D01*
X190337500Y-118130000D02*
X192147500Y-118130000D01*
X192147500Y-120130000D02*
X190337500Y-120130000D01*
X190337500Y-120130000D02*
X190337500Y-118130000D01*
X192147500Y-122240000D02*
X192147500Y-96200000D01*
X191337500Y-122240000D02*
X191337500Y-120240000D01*
X183327500Y-122240000D02*
X192147500Y-122240000D01*
X185037500Y-103410000D02*
G75*
G03*
X185021679Y-107396842I1650000J-2000000D01*
G01*
X185037500Y-111030000D02*
G75*
G03*
X185021679Y-115016842I1650000J-2000000D01*
G01*
X189137500Y-99310000D02*
G75*
G03*
X189137500Y-99310000I-1900000J0D01*
G01*
X189137500Y-119130000D02*
G75*
G03*
X189137500Y-119130000I-1900000J0D01*
G01*
%TD*%
M02*
