%TF.GenerationSoftware,KiCad,Pcbnew,7.0.9-7.0.9~ubuntu22.04.1*%
%TF.CreationDate,2023-12-15T15:57:02-03:00*%
%TF.ProjectId,Controle_Motor_DC,436f6e74-726f-46c6-955f-4d6f746f725f,V01*%
%TF.SameCoordinates,Original*%
%TF.FileFunction,Soldermask,Top*%
%TF.FilePolarity,Negative*%
%FSLAX46Y46*%
G04 Gerber Fmt 4.6, Leading zero omitted, Abs format (unit mm)*
G04 Created by KiCad (PCBNEW 7.0.9-7.0.9~ubuntu22.04.1) date 2023-12-15 15:57:02*
%MOMM*%
%LPD*%
G01*
G04 APERTURE LIST*
G04 Aperture macros list*
%AMRoundRect*
0 Rectangle with rounded corners*
0 $1 Rounding radius*
0 $2 $3 $4 $5 $6 $7 $8 $9 X,Y pos of 4 corners*
0 Add a 4 corners polygon primitive as box body*
4,1,4,$2,$3,$4,$5,$6,$7,$8,$9,$2,$3,0*
0 Add four circle primitives for the rounded corners*
1,1,$1+$1,$2,$3*
1,1,$1+$1,$4,$5*
1,1,$1+$1,$6,$7*
1,1,$1+$1,$8,$9*
0 Add four rect primitives between the rounded corners*
20,1,$1+$1,$2,$3,$4,$5,0*
20,1,$1+$1,$4,$5,$6,$7,0*
20,1,$1+$1,$6,$7,$8,$9,0*
20,1,$1+$1,$8,$9,$2,$3,0*%
G04 Aperture macros list end*
%ADD10C,2.500000*%
%ADD11R,1.800000X2.600000*%
%ADD12O,1.800000X2.600000*%
%ADD13R,2.000000X2.000000*%
%ADD14C,1.600000*%
%ADD15C,1.620000*%
%ADD16R,1.600000X1.600000*%
%ADD17O,3.000000X2.500000*%
%ADD18C,1.500000*%
%ADD19C,1.000000*%
%ADD20O,1.600000X1.200000*%
%ADD21O,1.200000X1.200000*%
%ADD22O,1.600000X1.600000*%
%ADD23R,2.000000X4.000000*%
%ADD24O,2.000000X3.300000*%
%ADD25O,3.500000X2.000000*%
%ADD26C,2.400000*%
%ADD27RoundRect,0.250001X-1.549999X0.799999X-1.549999X-0.799999X1.549999X-0.799999X1.549999X0.799999X0*%
%ADD28O,3.600000X2.100000*%
G04 APERTURE END LIST*
D10*
%TO.C,U2*%
X174120000Y-37737500D03*
X172620000Y-73737500D03*
X96620000Y-73737500D03*
X95120000Y-37737500D03*
D11*
X135840000Y-75737500D03*
D12*
X133300000Y-75737500D03*
X130760000Y-75737500D03*
X128220000Y-75737500D03*
X125680000Y-75737500D03*
X123140000Y-75737500D03*
X120600000Y-75737500D03*
X118060000Y-75737500D03*
X115520000Y-75737500D03*
X112980000Y-75737500D03*
X110440000Y-75737500D03*
X107900000Y-75737500D03*
X105354920Y-75734960D03*
X102820000Y-75737500D03*
X140920000Y-75737500D03*
X138374920Y-75734960D03*
D13*
X175120000Y-51597500D03*
X175120000Y-49057500D03*
X172580000Y-51597500D03*
X175120000Y-59217500D03*
X175120000Y-56677500D03*
X172580000Y-56677500D03*
%TD*%
D14*
%TO.C,C1*%
X136024000Y-132080000D03*
X138524000Y-132080000D03*
%TD*%
D15*
%TO.C,RV1*%
X152400000Y-81360000D03*
X154900000Y-83860000D03*
X152400000Y-86360000D03*
%TD*%
D16*
%TO.C,C3*%
X96520000Y-124460000D03*
D14*
X99020000Y-124460000D03*
%TD*%
D17*
%TO.C,SW1*%
X106680000Y-124540000D03*
X119180000Y-124540000D03*
X106680000Y-129540000D03*
X119180000Y-129540000D03*
%TD*%
D18*
%TO.C,K1*%
X170180000Y-118880000D03*
X170180000Y-103640000D03*
X170180000Y-108720000D03*
X170180000Y-113800000D03*
%TD*%
D17*
%TO.C,SW2*%
X160020000Y-83900000D03*
X172520000Y-83900000D03*
X160020000Y-88900000D03*
X172520000Y-88900000D03*
%TD*%
D19*
%TO.C,U1*%
X97060000Y-116560000D03*
X99850000Y-116560000D03*
X102640000Y-116560000D03*
X105430000Y-116560000D03*
X108220000Y-116560000D03*
X111010000Y-116560000D03*
X113800000Y-116560000D03*
X116590000Y-116560000D03*
X119380000Y-116560000D03*
X122170000Y-116560000D03*
X124960000Y-116560000D03*
X127750000Y-116560000D03*
X130540000Y-116560000D03*
X133330000Y-116560000D03*
X136120000Y-116560000D03*
X138910000Y-116560000D03*
X141700000Y-116560000D03*
X144490000Y-116560000D03*
X147280000Y-116560000D03*
X150070000Y-116560000D03*
X150070000Y-99060000D03*
X147280000Y-99060000D03*
X144490000Y-99060000D03*
X141700000Y-99060000D03*
X138910000Y-99060000D03*
X136120000Y-99060000D03*
X133330000Y-99060000D03*
X130540000Y-99060000D03*
X127750000Y-99060000D03*
X124960000Y-99060000D03*
X122170000Y-99060000D03*
X119380000Y-99060000D03*
X116590000Y-99060000D03*
X113800000Y-99060000D03*
X111010000Y-99060000D03*
X108220000Y-99060000D03*
X105430000Y-99060000D03*
X102640000Y-99060000D03*
X99850000Y-99060000D03*
X97060000Y-99060000D03*
%TD*%
D18*
%TO.C,Y1*%
X143724000Y-124460000D03*
X138724000Y-124460000D03*
%TD*%
D20*
%TO.C,Q1*%
X157480000Y-109220000D03*
D21*
X160020000Y-111760000D03*
X162560000Y-109220000D03*
%TD*%
D14*
%TO.C,R1*%
X128524000Y-124714000D03*
D22*
X128524000Y-132334000D03*
%TD*%
D14*
%TO.C,BT1*%
X83280000Y-71700000D03*
D23*
X74280000Y-71700000D03*
D24*
X80280000Y-71700000D03*
D25*
X81280000Y-76200000D03*
X81280000Y-67200000D03*
%TD*%
D14*
%TO.C,C2*%
X143684000Y-132080000D03*
X146184000Y-132080000D03*
%TD*%
D26*
%TO.C,M1*%
X187237500Y-99310000D03*
X187237500Y-119130000D03*
D27*
X187237500Y-105410000D03*
D28*
X187237500Y-113030000D03*
%TD*%
M02*
