%TF.GenerationSoftware,KiCad,Pcbnew,7.0.9-7.0.9~ubuntu22.04.1*%
%TF.CreationDate,2023-12-15T15:57:01-03:00*%
%TF.ProjectId,Controle_Motor_DC,436f6e74-726f-46c6-955f-4d6f746f725f,V01*%
%TF.SameCoordinates,Original*%
%TF.FileFunction,Copper,L2,Bot*%
%TF.FilePolarity,Positive*%
%FSLAX46Y46*%
G04 Gerber Fmt 4.6, Leading zero omitted, Abs format (unit mm)*
G04 Created by KiCad (PCBNEW 7.0.9-7.0.9~ubuntu22.04.1) date 2023-12-15 15:57:01*
%MOMM*%
%LPD*%
G01*
G04 APERTURE LIST*
G04 Aperture macros list*
%AMRoundRect*
0 Rectangle with rounded corners*
0 $1 Rounding radius*
0 $2 $3 $4 $5 $6 $7 $8 $9 X,Y pos of 4 corners*
0 Add a 4 corners polygon primitive as box body*
4,1,4,$2,$3,$4,$5,$6,$7,$8,$9,$2,$3,0*
0 Add four circle primitives for the rounded corners*
1,1,$1+$1,$2,$3*
1,1,$1+$1,$4,$5*
1,1,$1+$1,$6,$7*
1,1,$1+$1,$8,$9*
0 Add four rect primitives between the rounded corners*
20,1,$1+$1,$2,$3,$4,$5,0*
20,1,$1+$1,$4,$5,$6,$7,0*
20,1,$1+$1,$6,$7,$8,$9,0*
20,1,$1+$1,$8,$9,$2,$3,0*%
G04 Aperture macros list end*
%TA.AperFunction,ComponentPad*%
%ADD10R,1.800000X2.600000*%
%TD*%
%TA.AperFunction,ComponentPad*%
%ADD11O,1.800000X2.600000*%
%TD*%
%TA.AperFunction,ComponentPad*%
%ADD12R,2.000000X2.000000*%
%TD*%
%TA.AperFunction,ComponentPad*%
%ADD13C,1.600000*%
%TD*%
%TA.AperFunction,ComponentPad*%
%ADD14C,1.620000*%
%TD*%
%TA.AperFunction,ComponentPad*%
%ADD15R,1.600000X1.600000*%
%TD*%
%TA.AperFunction,ComponentPad*%
%ADD16O,3.000000X2.500000*%
%TD*%
%TA.AperFunction,ComponentPad*%
%ADD17C,1.500000*%
%TD*%
%TA.AperFunction,ComponentPad*%
%ADD18C,1.000000*%
%TD*%
%TA.AperFunction,ComponentPad*%
%ADD19O,1.600000X1.200000*%
%TD*%
%TA.AperFunction,ComponentPad*%
%ADD20O,1.200000X1.200000*%
%TD*%
%TA.AperFunction,ComponentPad*%
%ADD21O,1.600000X1.600000*%
%TD*%
%TA.AperFunction,ComponentPad*%
%ADD22R,2.000000X4.000000*%
%TD*%
%TA.AperFunction,ComponentPad*%
%ADD23O,2.000000X3.300000*%
%TD*%
%TA.AperFunction,ComponentPad*%
%ADD24O,3.500000X2.000000*%
%TD*%
%TA.AperFunction,ComponentPad*%
%ADD25RoundRect,0.250001X-1.549999X0.799999X-1.549999X-0.799999X1.549999X-0.799999X1.549999X0.799999X0*%
%TD*%
%TA.AperFunction,ComponentPad*%
%ADD26O,3.600000X2.100000*%
%TD*%
%TA.AperFunction,Conductor*%
%ADD27C,0.250000*%
%TD*%
G04 APERTURE END LIST*
D10*
%TO.P,U2,1,VSS*%
%TO.N,GND*%
X135840000Y-75737500D03*
D11*
%TO.P,U2,2,VDD*%
%TO.N,VCC*%
X133300000Y-75737500D03*
%TO.P,U2,3,VO*%
%TO.N,Net-(U2-VO)*%
X130760000Y-75737500D03*
%TO.P,U2,4,RS*%
%TO.N,Net-(U1-P3.1)*%
X128220000Y-75737500D03*
%TO.P,U2,5,R/W*%
%TO.N,Net-(U1-P3.2)*%
X125680000Y-75737500D03*
%TO.P,U2,6,E*%
%TO.N,Net-(U1-P3.0)*%
X123140000Y-75737500D03*
%TO.P,U2,7,DB0*%
%TO.N,Net-(U1-P0.0)*%
X120600000Y-75737500D03*
%TO.P,U2,8,DB1*%
%TO.N,Net-(U1-P0.1)*%
X118060000Y-75737500D03*
%TO.P,U2,9,DB2*%
%TO.N,Net-(U1-P0.2)*%
X115520000Y-75737500D03*
%TO.P,U2,10,DB3*%
%TO.N,Net-(U1-P0.3)*%
X112980000Y-75737500D03*
%TO.P,U2,11,DB4*%
%TO.N,Net-(U1-P0.4)*%
X110440000Y-75737500D03*
%TO.P,U2,12,DB5*%
%TO.N,Net-(U1-P0.5)*%
X107900000Y-75737500D03*
%TO.P,U2,13,DB6*%
%TO.N,Net-(U1-P0.6)*%
X105354920Y-75734960D03*
%TO.P,U2,14,DB7*%
%TO.N,Net-(U1-P0.7)*%
X102820000Y-75737500D03*
%TO.P,U2,15,A/VEE*%
%TO.N,unconnected-(U2-A{slash}VEE-Pad15)*%
X140920000Y-75737500D03*
%TO.P,U2,16,K*%
%TO.N,unconnected-(U2-K-Pad16)*%
X138374920Y-75734960D03*
D12*
%TO.P,U2,A1*%
%TO.N,N/C*%
X175120000Y-51597500D03*
X175120000Y-49057500D03*
X172580000Y-51597500D03*
%TO.P,U2,K1*%
X175120000Y-59217500D03*
X175120000Y-56677500D03*
X172580000Y-56677500D03*
%TD*%
D13*
%TO.P,C1,1*%
%TO.N,Net-(U1-XTAL2)*%
X136024000Y-132080000D03*
%TO.P,C1,2*%
%TO.N,GND*%
X138524000Y-132080000D03*
%TD*%
D14*
%TO.P,RV1,1,1*%
%TO.N,VCC*%
X152400000Y-81360000D03*
%TO.P,RV1,2,2*%
%TO.N,Net-(U2-VO)*%
X154900000Y-83860000D03*
%TO.P,RV1,3,3*%
%TO.N,GND*%
X152400000Y-86360000D03*
%TD*%
D15*
%TO.P,C3,1*%
%TO.N,VCC*%
X96520000Y-124460000D03*
D13*
%TO.P,C3,2*%
%TO.N,Net-(U1-RST)*%
X99020000Y-124460000D03*
%TD*%
D16*
%TO.P,SW1,1,1*%
%TO.N,Net-(U1-RST)*%
X106680000Y-124540000D03*
X119180000Y-124540000D03*
%TO.P,SW1,2,2*%
%TO.N,VCC*%
X106680000Y-129540000D03*
X119180000Y-129540000D03*
%TD*%
D17*
%TO.P,K1,13*%
%TO.N,VCC*%
X170180000Y-118880000D03*
%TO.P,K1,14*%
%TO.N,Net-(M1-+)*%
X170180000Y-103640000D03*
%TO.P,K1,A1*%
%TO.N,Net-(Q1-C)*%
X170180000Y-108720000D03*
%TO.P,K1,A2*%
%TO.N,VCC*%
X170180000Y-113800000D03*
%TD*%
D16*
%TO.P,SW2,1,1*%
%TO.N,VCC*%
X160020000Y-83900000D03*
X172520000Y-83900000D03*
%TO.P,SW2,2,2*%
%TO.N,Net-(U1-P2.5)*%
X160020000Y-88900000D03*
X172520000Y-88900000D03*
%TD*%
D18*
%TO.P,U1,1,P1.0*%
%TO.N,unconnected-(U1-P1.0-Pad1)*%
X97060000Y-116560000D03*
%TO.P,U1,2,P1.1*%
%TO.N,unconnected-(U1-P1.1-Pad2)*%
X99850000Y-116560000D03*
%TO.P,U1,3,P1.2*%
%TO.N,unconnected-(U1-P1.2-Pad3)*%
X102640000Y-116560000D03*
%TO.P,U1,4,P1.3*%
%TO.N,unconnected-(U1-P1.3-Pad4)*%
X105430000Y-116560000D03*
%TO.P,U1,5,P1.4*%
%TO.N,unconnected-(U1-P1.4-Pad5)*%
X108220000Y-116560000D03*
%TO.P,U1,6,P1.5*%
%TO.N,unconnected-(U1-P1.5-Pad6)*%
X111010000Y-116560000D03*
%TO.P,U1,7,P1.6*%
%TO.N,unconnected-(U1-P1.6-Pad7)*%
X113800000Y-116560000D03*
%TO.P,U1,8,P1.7*%
%TO.N,unconnected-(U1-P1.7-Pad8)*%
X116590000Y-116560000D03*
%TO.P,U1,9,RST*%
%TO.N,Net-(U1-RST)*%
X119380000Y-116560000D03*
%TO.P,U1,10,P3.0*%
%TO.N,Net-(U1-P3.0)*%
X122170000Y-116560000D03*
%TO.P,U1,11,P3.1*%
%TO.N,Net-(U1-P3.1)*%
X124960000Y-116560000D03*
%TO.P,U1,12,P3.2*%
%TO.N,Net-(U1-P3.2)*%
X127750000Y-116560000D03*
%TO.P,U1,13,P3.3*%
%TO.N,unconnected-(U1-P3.3-Pad13)*%
X130540000Y-116560000D03*
%TO.P,U1,14,P3.4*%
%TO.N,unconnected-(U1-P3.4-Pad14)*%
X133330000Y-116560000D03*
%TO.P,U1,15,P3.5*%
%TO.N,unconnected-(U1-P3.5-Pad15)*%
X136120000Y-116560000D03*
%TO.P,U1,16,P3.6*%
%TO.N,unconnected-(U1-P3.6-Pad16)*%
X138910000Y-116560000D03*
%TO.P,U1,17,P3.7*%
%TO.N,unconnected-(U1-P3.7-Pad17)*%
X141700000Y-116560000D03*
%TO.P,U1,18,XTAL2*%
%TO.N,Net-(U1-XTAL2)*%
X144490000Y-116560000D03*
%TO.P,U1,19,XTAL1*%
%TO.N,Net-(U1-XTAL1)*%
X147280000Y-116560000D03*
%TO.P,U1,20,GND*%
%TO.N,GND*%
X150070000Y-116560000D03*
%TO.P,U1,21,P2.0*%
%TO.N,unconnected-(U1-P2.0-Pad21)*%
X150070000Y-99060000D03*
%TO.P,U1,22,P2.1*%
%TO.N,unconnected-(U1-P2.1-Pad22)*%
X147280000Y-99060000D03*
%TO.P,U1,23,P2.2*%
%TO.N,unconnected-(U1-P2.2-Pad23)*%
X144490000Y-99060000D03*
%TO.P,U1,24,P2.3*%
%TO.N,unconnected-(U1-P2.3-Pad24)*%
X141700000Y-99060000D03*
%TO.P,U1,25,P2.4*%
%TO.N,Net-(Q1-B)*%
X138910000Y-99060000D03*
%TO.P,U1,26,P2.5*%
%TO.N,Net-(U1-P2.5)*%
X136120000Y-99060000D03*
%TO.P,U1,27,P2.6*%
%TO.N,unconnected-(U1-P2.6-Pad27)*%
X133330000Y-99060000D03*
%TO.P,U1,28,P2.7*%
%TO.N,unconnected-(U1-P2.7-Pad28)*%
X130540000Y-99060000D03*
%TO.P,U1,29,PSEN*%
%TO.N,unconnected-(U1-PSEN-Pad29)*%
X127750000Y-99060000D03*
%TO.P,U1,30,ALE/PROG*%
%TO.N,unconnected-(U1-ALE{slash}PROG-Pad30)*%
X124960000Y-99060000D03*
%TO.P,U1,31,EA/VPP*%
%TO.N,unconnected-(U1-EA{slash}VPP-Pad31)*%
X122170000Y-99060000D03*
%TO.P,U1,32,P0.7*%
%TO.N,Net-(U1-P0.7)*%
X119380000Y-99060000D03*
%TO.P,U1,33,P0.6*%
%TO.N,Net-(U1-P0.6)*%
X116590000Y-99060000D03*
%TO.P,U1,34,P0.5*%
%TO.N,Net-(U1-P0.5)*%
X113800000Y-99060000D03*
%TO.P,U1,35,P0.4*%
%TO.N,Net-(U1-P0.4)*%
X111010000Y-99060000D03*
%TO.P,U1,36,P0.3*%
%TO.N,Net-(U1-P0.3)*%
X108220000Y-99060000D03*
%TO.P,U1,37,P0.2*%
%TO.N,Net-(U1-P0.2)*%
X105430000Y-99060000D03*
%TO.P,U1,38,P0.1*%
%TO.N,Net-(U1-P0.1)*%
X102640000Y-99060000D03*
%TO.P,U1,39,P0.0*%
%TO.N,Net-(U1-P0.0)*%
X99850000Y-99060000D03*
%TO.P,U1,40,VCC*%
%TO.N,VCC*%
X97060000Y-99060000D03*
%TD*%
D17*
%TO.P,Y1,1,1*%
%TO.N,Net-(U1-XTAL1)*%
X143724000Y-124460000D03*
%TO.P,Y1,2,2*%
%TO.N,Net-(U1-XTAL2)*%
X138724000Y-124460000D03*
%TD*%
D19*
%TO.P,Q1,1,E*%
%TO.N,GND*%
X157480000Y-109220000D03*
D20*
%TO.P,Q1,2,B*%
%TO.N,Net-(Q1-B)*%
X160020000Y-111760000D03*
%TO.P,Q1,3,C*%
%TO.N,Net-(Q1-C)*%
X162560000Y-109220000D03*
%TD*%
D13*
%TO.P,R1,1*%
%TO.N,Net-(U1-RST)*%
X128524000Y-124714000D03*
D21*
%TO.P,R1,2*%
%TO.N,GND*%
X128524000Y-132334000D03*
%TD*%
D22*
%TO.P,BT1,1,+*%
%TO.N,VCC*%
X74280000Y-71700000D03*
D23*
%TO.P,BT1,2,-*%
%TO.N,GND*%
X80280000Y-71700000D03*
D24*
%TO.P,BT1,MP*%
%TO.N,N/C*%
X81280000Y-76200000D03*
X81280000Y-67200000D03*
%TD*%
D13*
%TO.P,C2,1*%
%TO.N,Net-(U1-XTAL1)*%
X143684000Y-132080000D03*
%TO.P,C2,2*%
%TO.N,GND*%
X146184000Y-132080000D03*
%TD*%
D25*
%TO.P,M1,1,+*%
%TO.N,Net-(M1-+)*%
X187237500Y-105410000D03*
D26*
%TO.P,M1,2,-*%
%TO.N,GND*%
X187237500Y-113030000D03*
%TD*%
D27*
%TO.N,Net-(U1-P3.2)*%
X127750000Y-116560000D02*
X129336800Y-114973200D01*
X129336800Y-114973200D02*
X129336800Y-85039200D01*
X129336800Y-85039200D02*
X125679200Y-81381600D01*
X125680000Y-81380800D02*
X125680000Y-75737500D01*
X125679200Y-81381600D02*
X125680000Y-81380800D01*
%TO.N,Net-(U1-P0.7)*%
X119380000Y-99060000D02*
X119380000Y-90830400D01*
X119380000Y-90830400D02*
X116890800Y-88341200D01*
X102820000Y-75737500D02*
X102820000Y-77572400D01*
X102820000Y-77572400D02*
X113588800Y-88341200D01*
X113588800Y-88341200D02*
X116890800Y-88341200D01*
%TO.N,Net-(U1-P0.6)*%
X116590000Y-99060000D02*
X116590000Y-94238000D01*
X100228400Y-77876400D02*
X100228400Y-70459600D01*
X104444800Y-68630800D02*
X105354920Y-69540920D01*
X105354920Y-69540920D02*
X105354920Y-75734960D01*
X116590000Y-94238000D02*
X100228400Y-77876400D01*
X100228400Y-70459600D02*
X102057200Y-68630800D01*
X102057200Y-68630800D02*
X104444800Y-68630800D01*
%TO.N,Net-(U1-P0.5)*%
X113800000Y-99060000D02*
X113800000Y-94699200D01*
X113800000Y-94699200D02*
X98552000Y-79451200D01*
X98552000Y-79451200D02*
X98552000Y-68529200D01*
X107900000Y-69088800D02*
X107900000Y-75737500D01*
X98552000Y-68529200D02*
X100990400Y-66090800D01*
X100990400Y-66090800D02*
X104902000Y-66090800D01*
X104902000Y-66090800D02*
X107900000Y-69088800D01*
%TO.N,GND*%
X80280000Y-71700000D02*
X79624800Y-71700000D01*
X79624800Y-71700000D02*
X76962000Y-69037200D01*
X76962000Y-69037200D02*
X76962000Y-64312800D01*
X135840000Y-62383200D02*
X135840000Y-75737500D01*
X76962000Y-64312800D02*
X82346800Y-58928000D01*
X82346800Y-58928000D02*
X132384800Y-58928000D01*
X132384800Y-58928000D02*
X135840000Y-62383200D01*
X157480000Y-109220000D02*
X157480000Y-95707200D01*
X152400000Y-90627200D02*
X152400000Y-86360000D01*
X157480000Y-95707200D02*
X152400000Y-90627200D01*
%TO.N,VCC*%
X172520000Y-83900000D02*
X175238400Y-83900000D01*
X173423200Y-113800000D02*
X170180000Y-113800000D01*
X175238400Y-83900000D02*
X178663600Y-87325200D01*
X178663600Y-87325200D02*
X178663600Y-95453200D01*
X174701200Y-108458000D02*
X174701200Y-112522000D01*
X178663600Y-95453200D02*
X176225200Y-97891600D01*
X176225200Y-97891600D02*
X168808400Y-97891600D01*
X168808400Y-97891600D02*
X166319200Y-100380800D01*
X166319200Y-100380800D02*
X166319200Y-105359200D01*
X166319200Y-105359200D02*
X167589200Y-106629200D01*
X167589200Y-106629200D02*
X172872400Y-106629200D01*
X172872400Y-106629200D02*
X174701200Y-108458000D01*
X174701200Y-112522000D02*
X173423200Y-113800000D01*
%TO.N,GND*%
X157353000Y-114528600D02*
X155321600Y-116560000D01*
X157480000Y-114401600D02*
X157353000Y-114528600D01*
X157353000Y-114528600D02*
X159004000Y-116179600D01*
X159004000Y-116179600D02*
X183692800Y-116179600D01*
X183692800Y-116179600D02*
X186842400Y-113030000D01*
X186842400Y-113030000D02*
X187237500Y-113030000D01*
X157480000Y-109220000D02*
X157480000Y-114401600D01*
X155321600Y-116560000D02*
X150070000Y-116560000D01*
%TD*%
M02*
